<?xml version="1.0" encoding="UTF-8" standalone="no"?>
<!-- Created with Inkscape (http://www.inkscape.org/) -->

<svg
   xmlns:dc="http://purl.org/dc/elements/1.1/"
   xmlns:cc="http://creativecommons.org/ns#"
   xmlns:rdf="http://www.w3.org/1999/02/22-rdf-syntax-ns#"
   xmlns:svg="http://www.w3.org/2000/svg"
   xmlns="http://www.w3.org/2000/svg"
   xmlns:sodipodi="http://sodipodi.sourceforge.net/DTD/sodipodi-0.dtd"
   xmlns:inkscape="http://www.inkscape.org/namespaces/inkscape"
   width="24"
   height="24"
   id="svg3314"
   version="1.1"
   inkscape:version="0.48.4 r9939"
   sodipodi:docname="audio.svg">
  <title
     id="title3077">Tilain</title>
  <defs
     id="defs3316" />
  <sodipodi:namedview
     id="base"
     pagecolor="#b2b2b2"
     bordercolor="#000000"
     borderopacity="1"
     inkscape:pageopacity="1"
     inkscape:pageshadow="2"
     inkscape:zoom="11.313708"
     inkscape:cx="50.637675"
     inkscape:cy="21.906379"
     inkscape:current-layer="svg3314"
     showgrid="true"
     inkscape:grid-bbox="true"
     inkscape:document-units="px"
     borderlayer="true"
     inkscape:window-width="1920"
     inkscape:window-height="1030"
     inkscape:window-x="0"
     inkscape:window-y="23"
     inkscape:window-maximized="1"
     showguides="true"
     inkscape:guide-bbox="true">
    <inkscape:grid
       type="xygrid"
       id="grid3045"
       empspacing="5"
       visible="true"
       enabled="true"
       snapvisiblegridlinesonly="true" />
    <sodipodi:guide
       orientation="0,1"
       position="24,20"
       id="guide3086" />
    <sodipodi:guide
       orientation="0,1"
       position="0,12"
       id="guide4128" />
    <sodipodi:guide
       orientation="0,1"
       position="10,4"
       id="guide3029" />
  </sodipodi:namedview>
  <metadata
     id="metadata3319">
    <rdf:RDF>
      <cc:Work
         rdf:about="">
        <dc:format>image/svg+xml</dc:format>
        <dc:type
           rdf:resource="http://purl.org/dc/dcmitype/StillImage" />
        <dc:title>Tilain</dc:title>
      </cc:Work>
    </rdf:RDF>
  </metadata>
  <g
     id="layer1"
     inkscape:label="Layer 1"
     inkscape:groupmode="layer"
     transform="translate(0,-8)">
    <g
       id="audio-volume-muted">
      <g
         transform="translate(-40,0)"
         id="g3796">
        <path
           style="opacity:0.2;fill:#ffffff"
           d="m 12,5 -2,2 c 0,0 0,-1 -1,-1 -2,0 -8,4 -8,6 0,2 6,6 8,6 1,0 1,-1 1,-1 l 2,2 4,-4 4,4 3,-3 -4,-4 4,-4 -3,-3 -4,4 -4,-4 z m 0,1 4,4 4,-4 2,2 -4,4 4,4 -2,2 -4,-4 -4,4 -2,-2 4,-4 -4,-4 2,-2 z M 8.6875,6.84375 C 8.8789062,6.8261719 9,6.875 9,7 L 9,17 C 9,18 2,14 2,12 2,10.25 7.3476562,6.9667969 8.6875,6.84375 z M 10,9 l 3,3 -3,3 0,-6 z"
           transform="translate(40,8)"
           id="path3798"
           inkscape:connector-curvature="0" />
        <rect
           style="fill:#000000;fill-opacity:0;stroke:none"
           id="rect3800"
           width="24"
           height="24"
           x="40"
           y="8"
           rx="0"
           ry="0" />
        <path
           sodipodi:nodetypes="zccz"
           inkscape:connector-curvature="0"
           style="opacity:1;fill:#262626;fill-opacity:1;stroke:none"
           d="m 42,20 c 0,2 7,6 7,5 l 0,-10 c 0,-1 -7,3 -7,5 z"
           id="path3802" />
        <path
           sodipodi:nodetypes="ccccccccccccc"
           inkscape:connector-curvature="0"
           id="path4007"
           d="m 52,14 -2,2 4,4 -4,4 2,2 4,-4 4,4 2,-2 -4,-4 4,-4 -2,-2 -4,4 z"
           style="opacity:1;fill:#262626;fill-opacity:1;stroke:none" />
      </g>
    </g>
    <g
       id="audio-volume-high"
       transform="translate(0,-40)">
      <g
         id="g3916"
         transform="translate(-40,0)">
        <path
           style="opacity:0.2;fill:#ffffff"
           d="m 18,-37 c -1.104569,0 -2,0.895431 -2,2 0,0.09841 0.01735,0.187121 0.03125,0.28125 C 15.732119,-34.900309 15.377534,-35 15,-35 c -1.104569,0 -2,0.895431 -2,2 0,0.107762 0.0152,0.20927 0.03125,0.3125 C 12.728804,-32.872738 12.381328,-33 12,-33 c -1.104569,0 -2,0.895431 -2,2 0,0.350015 0.09201,0.682572 0.25,0.96875 0.02898,0.05249 0.06033,0.106777 0.09375,0.15625 C 10.721463,-29.246045 11,-29 11,-28 c 0,1 -0.154462,1.073654 -0.46875,1.6875 C 10.215545,-25.958886 10,-25.511339 10,-25 c 0,1.104569 0.895431,2 2,2 0.389572,0 0.754851,-0.120488 1.0625,-0.3125 C 13.041962,-23.206124 13,-23.11219 13,-23 c 0,1.104569 0.895431,2 2,2 0.37748,0 0.731299,-0.09946 1.03125,-0.28125 C 16.019429,-21.188742 16,-21.094583 16,-21 c 0,1.104569 0.895431,2 2,2 0.724654,0 1.33666,-0.391744 1.6875,-0.96875 0.02396,-0.03137 0.03882,-0.0626 0.0625,-0.09375 C 22.01971,-23.048687 23,-25.030971 23,-28 c 0,-2.926026 -0.961408,-4.902138 -3.15625,-7.78125 -0.0055,-0.01295 -0.02551,-0.01844 -0.03125,-0.03125 C 19.500024,-36.509693 18.813477,-37 18,-37 z m -8,12 0,-6 0,-2 c 0,0 0,-1 -1,-1 -2,0 -8,4 -8,6 0,2 6,6 8,6 1,0 1,-1 1,-1 z"
           transform="translate(40,48)"
           id="path3918"
           inkscape:connector-curvature="0"
           sodipodi:nodetypes="sscsscssccscsscsscssccsccscccssscc" />
        <rect
           ry="0"
           rx="0"
           y="8"
           x="40"
           height="24"
           width="24"
           id="rect3920"
           style="fill:#000000;fill-opacity:0;stroke:none" />
        <path
           id="path3922"
           d="m 42,20 c 0,2 7,6 7,5 l 0,-10 c 0,-1 -7,3 -7,5 z"
           style="fill:#262626;fill-opacity:1;stroke:none"
           inkscape:connector-curvature="0"
           sodipodi:nodetypes="zccz" />
        <path
           style="fill:#262626;fill-opacity:1;stroke:none"
           d="m 18,4 c -0.552285,0 -1,0.4477153 -1,1 0,0.2761424 0.100286,0.5377856 0.28125,0.71875 C 18.906233,7.3436096 20,9.5201053 20,12 20,14.488752 18.914594,16.652712 17.28125,18.28125 17.100286,18.462214 17,18.723858 17,19 c 0,0.552285 0.447715,1 1,1 0.285816,0 0.536507,-0.120244 0.71875,-0.3125 C 18.7291,19.67715 18.73969,19.66664 18.75,19.65625 20.723102,17.669026 22,15.021773 22,12 22,9.1048995 20.582862,6.3412358 18.75,4.375 18.735,4.358913 18.7338,4.32848 18.71875,4.3125 18.536507,4.1202442 18.285816,4 18,4 z"
           transform="translate(40,8)"
           id="path3926"
           inkscape:connector-curvature="0"
           sodipodi:nodetypes="sscscsscssccs" />
        <path
           style="fill:#262626;fill-opacity:1;stroke:none"
           d="m 15,6 c -0.552285,0 -1,0.4477153 -1,1 0,0.2664686 0.111343,0.5082585 0.28125,0.6875 0.02187,0.023071 0.03854,0.041595 0.0625,0.0625 C 15.387352,8.8318763 16,10.378857 16,12 c 0,1.576244 -0.658903,3.16655 -1.65625,4.25 -0.02849,0.0205 -0.03646,0.03646 -0.0625,0.0625 C 14.111343,16.491742 14,16.733531 14,17 c 0,0.552285 0.447715,1 1,1 0.31044,0 0.566582,-0.153024 0.75,-0.375 0.02059,-0.02111 0.04215,-0.04115 0.0625,-0.0625 C 17.180571,16.126749 18,14.139229 18,12 18,9.8244118 17.189779,7.8144269 15.78125,6.375 15.743984,6.3285332 15.701104,6.2891297 15.65625,6.25 15.480519,6.0966974 15.251518,6 15,6 z"
           transform="translate(40,8)"
           id="path3930"
           inkscape:connector-curvature="0"
           sodipodi:nodetypes="ssscsccssccscss" />
        <path
           style="fill:#262626;fill-opacity:1;stroke:none"
           d="m 12,8 c -0.552285,0 -1,0.4477153 -1,1 0,0.2515182 0.0967,0.480519 0.25,0.65625 C 11.27412,9.6839 11.28551,9.725155 11.3125,9.75 11.850073,10.305597 12,11.158455 12,12 12,12.868674 11.862572,13.730377 11.28125,14.28125 11.27068,14.29127 11.26087,14.30269 11.25,14.3125 11.086022,14.490619 11,14.738808 11,15 c 0,0.552285 0.447715,1 1,1 0.291093,0 0.567251,-0.113991 0.75,-0.3125 C 13.67316,14.78557 14,13.39349 14,12 14,10.632381 13.643278,9.2416519 12.75,8.34375 12.56668,8.1336102 12.300767,8 12,8 z"
           transform="translate(40,8)"
           id="path3934"
           inkscape:connector-curvature="0"
           sodipodi:nodetypes="ssscsccsscscs" />
      </g>
    </g>
    <g
       transform="translate(-40,-40)"
       id="audio-volume-medium">
      <g
         transform="translate(-40,0)"
         id="g3938">
        <path
           style="opacity:0.2;fill:#ffffff"
           d="m -22,-37 c -1.104569,0 -2,0.895431 -2,2 0,0.09841 0.01735,0.187121 0.03125,0.28125 C -24.267881,-34.900309 -24.622466,-35 -25,-35 c -1.104569,0 -2,0.895431 -2,2 0,0.107762 0.0152,0.20927 0.03125,0.3125 C -27.271196,-32.872738 -27.618672,-33 -28,-33 c -1.104569,0 -2,0.895431 -2,2 0,0.350015 0.09201,0.682572 0.25,0.96875 0.02898,0.05249 0.06033,0.106777 0.09375,0.15625 C -29.278537,-29.246045 -29,-29 -29,-28 c 0,1 -0.154462,1.073654 -0.46875,1.6875 C -29.784455,-25.958886 -30,-25.511339 -30,-25 c 0,1.104569 0.895431,2 2,2 0.389572,0 0.754851,-0.120488 1.0625,-0.3125 C -26.958038,-23.206124 -27,-23.11219 -27,-23 c 0,1.104569 0.895431,2 2,2 0.37748,0 0.731299,-0.09946 1.03125,-0.28125 C -23.980571,-21.188742 -24,-21.094583 -24,-21 c 0,1.104569 0.895431,2 2,2 0.724654,0 1.33666,-0.391744 1.6875,-0.96875 0.02396,-0.03137 0.03882,-0.0626 0.0625,-0.09375 2.26971,-2.986187 3.25,-4.968471 3.25,-7.9375 0,-2.926026 -0.961408,-4.902138 -3.15625,-7.78125 -0.0055,-0.01295 -0.02551,-0.01844 -0.03125,-0.03125 C -20.499976,-36.509693 -21.186523,-37 -22,-37 z m -8,12 0,-6 0,-2 c 0,0 0,-1 -1,-1 -2,0 -8,4 -8,6 0,2 6,6 8,6 1,0 1,-1 1,-1 l 0,-2 z m 8,-11 c 0.285816,0 0.536507,0.120244 0.71875,0.3125 0.01505,0.01598 0.01625,0.04641 0.03125,0.0625 1.832862,1.966236 3.25,4.7299 3.25,7.625 0,3.021773 -1.276898,5.669026 -3.25,7.65625 -0.01031,0.01039 -0.0209,0.0209 -0.03125,0.03125 C -21.463493,-20.120244 -21.714184,-20 -22,-20 c -0.552285,0 -1,-0.447715 -1,-1 0,-0.276142 0.100286,-0.537786 0.28125,-0.71875 C -21.085406,-23.347288 -20,-25.511248 -20,-28 c 0,-2.479895 -1.093767,-4.65639 -2.71875,-6.28125 C -22.899714,-34.462214 -23,-34.723858 -23,-35 c 0,-0.552285 0.447715,-1 1,-1 z"
           transform="translate(80,48)"
           id="path3940"
           inkscape:connector-curvature="0" />
        <rect
           style="fill:#000000;fill-opacity:0;stroke:none"
           id="rect3942"
           width="24"
           height="24"
           x="40"
           y="8"
           rx="0"
           ry="0" />
        <path
           sodipodi:nodetypes="zccz"
           inkscape:connector-curvature="0"
           style="fill:#262626;fill-opacity:1;stroke:none"
           d="m 42,20 c 0,2 7,6 7,5 l 0,-10 c 0,-1 -7,3 -7,5 z"
           id="path3944" />
        <path
           sodipodi:nodetypes="sscscsscssccs"
           inkscape:connector-curvature="0"
           id="path3948"
           transform="translate(40,8)"
           d="m 18,4 c -0.552285,0 -1,0.4477153 -1,1 0,0.2761424 0.100286,0.5377856 0.28125,0.71875 C 18.906233,7.3436096 20,9.5201053 20,12 20,14.488752 18.914594,16.652712 17.28125,18.28125 17.100286,18.462214 17,18.723858 17,19 c 0,0.552285 0.447715,1 1,1 0.285816,0 0.536507,-0.120244 0.71875,-0.3125 C 18.7291,19.67715 18.73969,19.66664 18.75,19.65625 20.723102,17.669026 22,15.021773 22,12 22,9.1048995 20.582862,6.3412358 18.75,4.375 18.735,4.358913 18.7338,4.32848 18.71875,4.3125 18.536507,4.1202442 18.285816,4 18,4 z"
           style="opacity:0.20000000000000001;fill:#262626;fill-opacity:1;stroke:none" />
        <path
           sodipodi:nodetypes="ssscsccssccscss"
           inkscape:connector-curvature="0"
           id="path3952"
           transform="translate(40,8)"
           d="m 15,6 c -0.552285,0 -1,0.4477153 -1,1 0,0.2664686 0.111343,0.5082585 0.28125,0.6875 0.02187,0.023071 0.03854,0.041595 0.0625,0.0625 C 15.387352,8.8318763 16,10.378857 16,12 c 0,1.576244 -0.658903,3.16655 -1.65625,4.25 -0.02849,0.0205 -0.03646,0.03646 -0.0625,0.0625 C 14.111343,16.491742 14,16.733531 14,17 c 0,0.552285 0.447715,1 1,1 0.31044,0 0.566582,-0.153024 0.75,-0.375 0.02059,-0.02111 0.04215,-0.04115 0.0625,-0.0625 C 17.180571,16.126749 18,14.139229 18,12 18,9.8244118 17.189779,7.8144269 15.78125,6.375 15.743984,6.3285332 15.701104,6.2891297 15.65625,6.25 15.480519,6.0966974 15.251518,6 15,6 z"
           style="fill:#262626;fill-opacity:1;stroke:none" />
        <path
           sodipodi:nodetypes="ssscsccsscscs"
           inkscape:connector-curvature="0"
           id="path3956"
           transform="translate(40,8)"
           d="m 12,8 c -0.552285,0 -1,0.4477153 -1,1 0,0.2515182 0.0967,0.480519 0.25,0.65625 C 11.27412,9.6839 11.28551,9.725155 11.3125,9.75 11.850073,10.305597 12,11.158455 12,12 12,12.868674 11.862572,13.730377 11.28125,14.28125 11.27068,14.29127 11.26087,14.30269 11.25,14.3125 11.086022,14.490619 11,14.738808 11,15 c 0,0.552285 0.447715,1 1,1 0.291093,0 0.567251,-0.113991 0.75,-0.3125 C 13.67316,14.78557 14,13.39349 14,12 14,10.632381 13.643278,9.2416519 12.75,8.34375 12.56668,8.1336102 12.300767,8 12,8 z"
           style="fill:#262626;fill-opacity:1;stroke:none" />
      </g>
    </g>
    <g
       id="audio-volume-low"
       transform="translate(-40,0)">
      <g
         id="g3960"
         transform="translate(-40,0)">
        <path
           style="opacity:0.2;fill:#ffffff"
           d="m -22,3 c -1.104569,0 -2,0.8954305 -2,2 0,0.09841 0.01735,0.1871208 0.03125,0.28125 C -24.267881,5.0996913 -24.622466,5 -25,5 c -1.104569,0 -2,0.8954305 -2,2 0,0.1077625 0.0152,0.2092703 0.03125,0.3125 C -27.271196,7.127262 -27.618672,7 -28,7 c -1.104569,0 -2,0.8954305 -2,2 0,0.3500148 0.09201,0.6825722 0.25,0.96875 0.02898,0.05249 0.06033,0.106777 0.09375,0.15625 C -29.278537,10.753955 -29,11 -29,12 c 0,1 -0.154462,1.073654 -0.46875,1.6875 C -29.784455,14.041114 -30,14.488661 -30,15 c 0,1.104569 0.895431,2 2,2 0.389572,0 0.754851,-0.120488 1.0625,-0.3125 C -26.958038,16.793876 -27,16.88781 -27,17 c 0,1.104569 0.895431,2 2,2 0.37748,0 0.731299,-0.09946 1.03125,-0.28125 C -23.980571,18.811258 -24,18.905417 -24,19 c 0,1.104569 0.895431,2 2,2 0.724654,0 1.33666,-0.391744 1.6875,-0.96875 0.02396,-0.03137 0.03882,-0.0626 0.0625,-0.09375 C -17.98029,16.951313 -17,14.969029 -17,12 -17,9.0739742 -17.961408,7.0978617 -20.15625,4.21875 -20.161729,4.2057955 -20.181757,4.2003133 -20.1875,4.1875 -20.499976,3.4903069 -21.186523,3 -22,3 z m -8,12 0,-6 0,-2 c 0,0 0,-1 -1,-1 -2,0 -8,4 -8,6 0,2 6,6 8,6 1,0 1,-1 1,-1 l 0,-2 z m 8,-11 c 0.285816,0 0.536507,0.1202442 0.71875,0.3125 0.01505,0.01598 0.01625,0.046413 0.03125,0.0625 1.832862,1.9662358 3.25,4.7298995 3.25,7.625 0,3.021773 -1.276898,5.669026 -3.25,7.65625 -0.01031,0.01039 -0.0209,0.0209 -0.03125,0.03125 C -21.463493,19.879756 -21.714184,20 -22,20 c -0.552285,0 -1,-0.447715 -1,-1 0,-0.276142 0.100286,-0.537786 0.28125,-0.71875 C -21.085406,16.652712 -20,14.488752 -20,12 -20,9.5201053 -21.093767,7.3436096 -22.71875,5.71875 -22.899714,5.5377856 -23,5.2761424 -23,5 c 0,-0.5522847 0.447715,-1 1,-1 z m -3,2 c 0.251518,0 0.480519,0.096697 0.65625,0.25 0.04485,0.03913 0.08773,0.078533 0.125,0.125 C -22.810221,7.8144269 -22,9.8244118 -22,12 c 0,2.139229 -0.819429,4.126749 -2.1875,5.5625 -0.02035,0.02135 -0.04191,0.04139 -0.0625,0.0625 C -24.433418,17.846976 -24.68956,18 -25,18 c -0.552285,0 -1,-0.447715 -1,-1 0,-0.266469 0.111343,-0.508258 0.28125,-0.6875 0.02604,-0.02604 0.03401,-0.042 0.0625,-0.0625 C -24.658903,15.16655 -24,13.576244 -24,12 -24,10.378857 -24.612648,8.8318763 -25.65625,7.75 -25.68021,7.729095 -25.69688,7.710571 -25.71875,7.6875 -25.888657,7.5082585 -26,7.2664686 -26,7 c 0,-0.5522847 0.447715,-1 1,-1 z"
           transform="translate(80,8)"
           id="path3962"
           inkscape:connector-curvature="0" />
        <rect
           ry="0"
           rx="0"
           y="8"
           x="40"
           height="24"
           width="24"
           id="rect3964"
           style="fill:#000000;fill-opacity:0;stroke:none" />
        <path
           id="path3966"
           d="m 42,20 c 0,2 7,6 7,5 l 0,-10 c 0,-1 -7,3 -7,5 z"
           style="fill:#262626;fill-opacity:1;stroke:none"
           inkscape:connector-curvature="0"
           sodipodi:nodetypes="zccz" />
        <path
           style="opacity:0.20000000000000001;fill:#262626;fill-opacity:1;stroke:none"
           d="m 18,4 c -0.552285,0 -1,0.4477153 -1,1 0,0.2761424 0.100286,0.5377856 0.28125,0.71875 C 18.906233,7.3436096 20,9.5201053 20,12 20,14.488752 18.914594,16.652712 17.28125,18.28125 17.100286,18.462214 17,18.723858 17,19 c 0,0.552285 0.447715,1 1,1 0.285816,0 0.536507,-0.120244 0.71875,-0.3125 C 18.7291,19.67715 18.73969,19.66664 18.75,19.65625 20.723102,17.669026 22,15.021773 22,12 22,9.1048995 20.582862,6.3412358 18.75,4.375 18.735,4.358913 18.7338,4.32848 18.71875,4.3125 18.536507,4.1202442 18.285816,4 18,4 z"
           transform="translate(40,8)"
           id="path3970"
           inkscape:connector-curvature="0"
           sodipodi:nodetypes="sscscsscssccs" />
        <path
           style="opacity:0.20000000000000001;fill:#262626;fill-opacity:1;stroke:none"
           d="m 15,6 c -0.552285,0 -1,0.4477153 -1,1 0,0.2664686 0.111343,0.5082585 0.28125,0.6875 0.02187,0.023071 0.03854,0.041595 0.0625,0.0625 C 15.387352,8.8318763 16,10.378857 16,12 c 0,1.576244 -0.658903,3.16655 -1.65625,4.25 -0.02849,0.0205 -0.03646,0.03646 -0.0625,0.0625 C 14.111343,16.491742 14,16.733531 14,17 c 0,0.552285 0.447715,1 1,1 0.31044,0 0.566582,-0.153024 0.75,-0.375 0.02059,-0.02111 0.04215,-0.04115 0.0625,-0.0625 C 17.180571,16.126749 18,14.139229 18,12 18,9.8244118 17.189779,7.8144269 15.78125,6.375 15.743984,6.3285332 15.701104,6.2891297 15.65625,6.25 15.480519,6.0966974 15.251518,6 15,6 z"
           transform="translate(40,8)"
           id="path3974"
           inkscape:connector-curvature="0"
           sodipodi:nodetypes="ssscsccssccscss" />
        <path
           style="fill:#262626;fill-opacity:1;stroke:none"
           d="m 12,8 c -0.552285,0 -1,0.4477153 -1,1 0,0.2515182 0.0967,0.480519 0.25,0.65625 C 11.27412,9.6839 11.28551,9.725155 11.3125,9.75 11.850073,10.305597 12,11.158455 12,12 12,12.868674 11.862572,13.730377 11.28125,14.28125 11.27068,14.29127 11.26087,14.30269 11.25,14.3125 11.086022,14.490619 11,14.738808 11,15 c 0,0.552285 0.447715,1 1,1 0.291093,0 0.567251,-0.113991 0.75,-0.3125 C 13.67316,14.78557 14,13.39349 14,12 14,10.632381 13.643278,9.2416519 12.75,8.34375 12.56668,8.1336102 12.300767,8 12,8 z"
           transform="translate(40,8)"
           id="path3978"
           inkscape:connector-curvature="0"
           sodipodi:nodetypes="ssscsccsscscs" />
      </g>
    </g>
    <g
       transform="translate(0,-80)"
       id="g3982">
      <g
         transform="translate(-40,0)"
         id="g3984">
        <path
           sodipodi:nodetypes="cszscc"
           inkscape:connector-curvature="0"
           style="opacity:0.2;fill:#ffffff"
           d="m 50,15 c 0,0 0,-1 -1,-1 -2,0 -8,4 -8,6 0,2 6,6 8,6 1,0 1,-1 1,-1 0,-5 0,-5 0,-10 z"
           id="path3986" />
        <rect
           style="fill:#000000;fill-opacity:0;stroke:none"
           id="rect3988"
           width="24"
           height="24"
           x="40"
           y="8"
           rx="0"
           ry="0" />
        <path
           sodipodi:nodetypes="zccz"
           inkscape:connector-curvature="0"
           style="fill:#262626;fill-opacity:1;stroke:none"
           d="m 42,20 c 0,2 7,6 7,5 l 0,-10 c 0,-1 -7,3 -7,5 z"
           id="path3990" />
        <path
           id="path3992"
           transform="translate(40,8)"
           d="m 18,3 c -1.104569,0 -2,0.8954305 -2,2 0,0.6579806 0.322087,1.2292608 0.8125,1.59375 0.02413,0.017934 0.03755,0.045645 0.0625,0.0625 C 18.218733,8.4391724 18.972368,10.210714 19,12 19.02987,13.93445 18.012291,15.992799 16.34375,17.84375 16.119866,18.16677 16,18.577217 16,19 c 0,1.104569 0.895431,2 2,2 0.724654,0 1.33666,-0.391744 1.6875,-0.96875 0.02396,-0.03137 0.03882,-0.0626 0.0625,-0.09375 C 22.01971,16.951313 23,14.969029 23,12 23,9.0739742 22.038592,7.0978617 19.84375,4.21875 19.838271,4.2057955 19.818243,4.2003133 19.8125,4.1875 19.500024,3.4903069 18.813477,3 18,3 z"
           style="opacity:0.2;fill:#ffffff"
           inkscape:connector-curvature="0" />
        <path
           sodipodi:nodetypes="sscscsscssccs"
           inkscape:connector-curvature="0"
           id="path3994"
           transform="translate(40,8)"
           d="m 18,4 c -0.552285,0 -1,0.4477153 -1,1 0,0.2761424 0.100286,0.5377856 0.28125,0.71875 C 18.906233,7.3436096 20,9.5201053 20,12 20,14.488752 18.914594,16.652712 17.28125,18.28125 17.100286,18.462214 17,18.723858 17,19 c 0,0.552285 0.447715,1 1,1 0.285816,0 0.536507,-0.120244 0.71875,-0.3125 C 18.7291,19.67715 18.73969,19.66664 18.75,19.65625 20.723102,17.669026 22,15.021773 22,12 22,9.1048995 20.582862,6.3412358 18.75,4.375 18.735,4.358913 18.7338,4.32848 18.71875,4.3125 18.536507,4.1202442 18.285816,4 18,4 z"
           style="fill:#262626;fill-opacity:1;stroke:none" />
        <path
           sodipodi:nodetypes="ssscsscsssscccssccs"
           inkscape:connector-curvature="0"
           id="path3996"
           transform="translate(40,8)"
           d="m 15,5 c -1.104569,0 -2,0.8954305 -2,2 0,0.6494107 0.301688,1.2283947 0.78125,1.59375 0.03024,0.023036 0.0622,0.041183 0.09375,0.0625 C 14.593156,9.6777128 15,11 15,12 c 0,1 -0.513926,2.401939 -1.40625,3.59375 -0.0262,0.035 -0.06675,0.05883 -0.09375,0.09375 -0.07554,0.08643 -0.127559,0.182669 -0.1875,0.28125 C 13.128564,16.271258 13,16.620084 13,17 c 0,1.104569 0.895431,2 2,2 0.617035,0 1.164377,-0.279535 1.53125,-0.71875 0.02435,-0.02914 0.03982,-0.06323 0.0625,-0.09375 0.01886,-0.02366 0.04387,-0.03884 0.0625,-0.0625 0.0078,-0.01152 0.0237,-0.01956 0.03125,-0.03125 C 18,16 19,14 19,12 19,10 18,8 16.71875,5.96875 16.698508,5.9366588 16.678902,5.9056862 16.65625,5.875 16.647822,5.8625254 16.6337,5.856022 16.625,5.84375 16.262688,5.3326565 15.674168,5 15,5 z"
           style="opacity:0.2;fill:#ffffff" />
        <path
           sodipodi:nodetypes="ssscsccssccscss"
           inkscape:connector-curvature="0"
           id="path3998"
           transform="translate(40,8)"
           d="m 15,6 c -0.552285,0 -1,0.4477153 -1,1 0,0.2664686 0.111343,0.5082585 0.28125,0.6875 0.02187,0.023071 0.03854,0.041595 0.0625,0.0625 C 15.387352,8.8318763 16,10.378857 16,12 c 0,1.576244 -0.658903,3.16655 -1.65625,4.25 -0.02849,0.0205 -0.03646,0.03646 -0.0625,0.0625 C 14.111343,16.491742 14,16.733531 14,17 c 0,0.552285 0.447715,1 1,1 0.31044,0 0.566582,-0.153024 0.75,-0.375 0.02059,-0.02111 0.04215,-0.04115 0.0625,-0.0625 C 17.180571,16.126749 18,14.139229 18,12 18,9.8244118 17.189779,7.8144269 15.78125,6.375 15.743984,6.3285332 15.701104,6.2891297 15.65625,6.25 15.480519,6.0966974 15.251518,6 15,6 z"
           style="fill:#262626;fill-opacity:1;stroke:none" />
        <path
           sodipodi:nodetypes="ssscscsscscs"
           inkscape:connector-curvature="0"
           id="path4000"
           transform="translate(40,8)"
           d="m 12,7 c -1.104569,0 -2,0.8954305 -2,2 0,0.3500148 0.09201,0.6825722 0.25,0.96875 0.02898,0.05249 0.06033,0.106777 0.09375,0.15625 C 10.721463,10.753955 11,11 11,12 11,13 10.845538,13.073654 10.53125,13.6875 10.215545,14.041114 10,14.488661 10,15 c 0,1.104569 0.895431,2 2,2 0.828427,0 1.540133,-0.50092 1.84375,-1.21875 C 14.579475,14.673043 15,13 15,12 15,11 14.610698,9.4055268 13.875,8.3125 13.594601,7.5466945 12.862945,7 12,7 z"
           style="opacity:0.2;fill:#ffffff" />
        <path
           sodipodi:nodetypes="ssscsccsscscs"
           inkscape:connector-curvature="0"
           id="path4002"
           transform="translate(40,8)"
           d="m 12,8 c -0.552285,0 -1,0.4477153 -1,1 0,0.2515182 0.0967,0.480519 0.25,0.65625 C 11.27412,9.6839 11.28551,9.725155 11.3125,9.75 11.850073,10.305597 12,11.158455 12,12 12,12.868674 11.862572,13.730377 11.28125,14.28125 11.27068,14.29127 11.26087,14.30269 11.25,14.3125 11.086022,14.490619 11,14.738808 11,15 c 0,0.552285 0.447715,1 1,1 0.291093,0 0.567251,-0.113991 0.75,-0.3125 C 13.67316,14.78557 14,13.39349 14,12 14,10.632381 13.643278,9.2416519 12.75,8.34375 12.56668,8.1336102 12.300767,8 12,8 z"
           style="fill:#262626;fill-opacity:1;stroke:none" />
      </g>
    </g>
  </g>
</svg>
