<?xml version="1.0" encoding="UTF-8" standalone="no"?>
<!-- Created with Inkscape (http://www.inkscape.org/) -->

<svg
   xmlns:dc="http://purl.org/dc/elements/1.1/"
   xmlns:cc="http://creativecommons.org/ns#"
   xmlns:rdf="http://www.w3.org/1999/02/22-rdf-syntax-ns#"
   xmlns:svg="http://www.w3.org/2000/svg"
   xmlns="http://www.w3.org/2000/svg"
   xmlns:sodipodi="http://sodipodi.sourceforge.net/DTD/sodipodi-0.dtd"
   xmlns:inkscape="http://www.inkscape.org/namespaces/inkscape"
   width="24"
   height="24"
   id="svg3314"
   version="1.1"
   inkscape:version="0.48.4 r9939"
   sodipodi:docname="notification.svg">
  <title
     id="title3031">Tilain</title>
  <defs
     id="defs3316" />
  <sodipodi:namedview
     id="base"
     pagecolor="#b2b2b2"
     bordercolor="#000000"
     borderopacity="1"
     inkscape:pageopacity="1"
     inkscape:pageshadow="2"
     inkscape:zoom="7.6059795"
     inkscape:cx="-11.272651"
     inkscape:cy="32.633193"
     inkscape:current-layer="layer2"
     showgrid="true"
     inkscape:grid-bbox="true"
     inkscape:document-units="px"
     borderlayer="true"
     inkscape:window-width="1920"
     inkscape:window-height="1030"
     inkscape:window-x="0"
     inkscape:window-y="23"
     inkscape:window-maximized="1"
     showguides="true"
     inkscape:guide-bbox="true">
    <inkscape:grid
       type="xygrid"
       id="grid3045"
       empspacing="5"
       visible="true"
       enabled="true"
       snapvisiblegridlinesonly="true" />
    <sodipodi:guide
       orientation="0,1"
       position="24,20"
       id="guide3086" />
    <sodipodi:guide
       orientation="0,1"
       position="24,4"
       id="guide3088" />
  </sodipodi:namedview>
  <metadata
     id="metadata3319">
    <rdf:RDF>
      <cc:Work
         rdf:about="">
        <dc:format>image/svg+xml</dc:format>
        <dc:type
           rdf:resource="http://purl.org/dc/dcmitype/StillImage" />
        <dc:title>Tilain</dc:title>
      </cc:Work>
    </rdf:RDF>
  </metadata>
  <g
     inkscape:groupmode="layer"
     id="layer2"
     inkscape:label="Ebene#1">
    <g
       transform="translate(-24,-56)"
       id="notification-empty"
       style="opacity:1">
      <rect
         y="32"
         x="0"
         height="24"
         width="24"
         id="rect3083"
         style="opacity:0;fill:#000000;fill-opacity:1;stroke:none" />
      <path
         style="fill:#ffffff;fill-opacity:0.20000000000000001;stroke:none"
         d="M -12 -23 C -18.075132 -23 -23 -18.075132 -23 -12 C -23 -5.9248678 -18.075132 -1 -12 -1 C -5.924868 -1 -1 -5.9248678 -1 -12 C -1 -18.075132 -5.924868 -23 -12 -23 z M -12 -22 C -6.477153 -22 -2 -17.522847 -2 -12 C -2 -6.4771525 -6.477153 -2 -12 -2 C -17.522847 -2 -22 -6.4771525 -22 -12 C -22 -17.522847 -17.522847 -22 -12 -22 z M -12 -20 C -16.418278 -20 -20 -16.418278 -20 -12 C -20 -7.581722 -16.418278 -4 -12 -4 C -7.581722 -4 -4 -7.581722 -4 -12 C -4 -16.418278 -7.581722 -20 -12 -20 z M -12 -19 C -8.134007 -19 -5 -15.865993 -5 -12 C -5 -8.1340068 -8.134007 -5 -12 -5 C -15.865993 -5 -19 -8.1340068 -19 -12 C -19 -15.865993 -15.865993 -19 -12 -19 z "
         transform="translate(24,56)"
         id="path3874" />
      <path
         style="fill:#262626;fill-opacity:1;stroke:none"
         d="m 87,-18 c -5.522847,0 -10,4.477153 -10,10 0,5.5228475 4.477153,10 10,10 5.522847,0 10,-4.4771525 10,-10 0,-5.522847 -4.477153,-10 -10,-10 z m 0,2 c 4.418278,0 8,3.581722 8,8 0,4.418278 -3.581722,8 -8,8 -4.418278,0 -8,-3.581722 -8,-8 0,-4.418278 3.581722,-8 8,-8 z"
         id="path3093"
         transform="translate(-75,52)"
         inkscape:connector-curvature="0" />
    </g>
    <g
       id="notification-progress-inactive"
       transform="translate(-48,-56)"
       style="opacity:1">
      <rect
         style="opacity:0;fill:#000000;fill-opacity:1;stroke:none"
         id="rect3883"
         width="24"
         height="24"
         x="0"
         y="32" />
      <path
         style="fill:#ffffff;fill-opacity:0.20000000000000001;stroke:none"
         d="M -36 -23 C -42.075132 -23 -47 -18.075132 -47 -12 C -47 -5.9248678 -42.075132 -1 -36 -1 C -29.924868 -1 -25 -5.9248678 -25 -12 C -25 -18.075132 -29.924868 -23 -36 -23 z M -36 -22 C -30.477153 -22 -26 -17.522847 -26 -12 C -26 -6.4771525 -30.477153 -2 -36 -2 C -41.522847 -2 -46 -6.4771525 -46 -12 C -46 -17.522847 -41.522847 -22 -36 -22 z M -36 -20 C -40.418278 -20 -44 -16.418278 -44 -12 C -44 -7.581722 -40.418278 -4 -36 -4 C -31.581722 -4 -28 -7.581722 -28 -12 C -28 -16.418278 -31.581722 -20 -36 -20 z M -36 -19 C -32.134007 -19 -29 -15.865993 -29 -12 C -29 -8.1340068 -32.134007 -5 -36 -5 C -39.865993 -5 -43 -8.1340068 -43 -12 C -43 -15.865993 -39.865993 -19 -36 -19 z "
         transform="translate(48,56)"
         id="path3885" />
      <path
         inkscape:connector-curvature="0"
         transform="translate(-75,52)"
         id="path3887"
         d="m 87,-18 c -5.522847,0 -10,4.477153 -10,10 0,5.5228475 4.477153,10 10,10 5.522847,0 10,-4.4771525 10,-10 0,-5.522847 -4.477153,-10 -10,-10 z m 0,2 c 4.418278,0 8,3.581722 8,8 0,4.418278 -3.581722,8 -8,8 -4.418278,0 -8,-3.581722 -8,-8 0,-4.418278 3.581722,-8 8,-8 z"
         style="fill:#262626;fill-opacity:1;stroke:none" />
    </g>
    <g
       id="notification-progress-active"
       transform="translate(-24,-32)"
       style="opacity:1">
      <rect
         style="opacity:0;fill:#000000;fill-opacity:1;stroke:none"
         id="rect3891"
         width="24"
         height="24"
         x="0"
         y="32" />
      <path
         style="fill:#ffffff;fill-opacity:0.20000000000000001;stroke:none"
         d="M -12 1 C -18.075132 1 -23 5.924868 -23 12 C -23 18.075132 -18.075132 23 -12 23 C -5.924868 23 -1 18.075132 -1 12 C -1 5.924868 -5.924868 1 -12 1 z M -12 2 C -6.477153 2 -2 6.477153 -2 12 C -2 17.522848 -6.477153 22 -12 22 C -17.522847 22 -22 17.522848 -22 12 C -22 6.477153 -17.522847 2 -12 2 z "
         transform="translate(24,32)"
         id="path3893" />
      <path
         inkscape:connector-curvature="0"
         transform="translate(-75,52)"
         id="path3895"
         d="m 87,-18 c -5.522847,0 -10,4.477153 -10,10 0,5.5228475 4.477153,10 10,10 5.522847,0 10,-4.4771525 10,-10 0,-5.522847 -4.477153,-10 -10,-10 z"
         style="fill:#262626;fill-opacity:1;stroke:none"
         sodipodi:nodetypes="sssss" />
    </g>
    <g
       id="notification-disabled"
       transform="translate(0,-80)"
       style="opacity:1">
      <rect
         style="opacity:0;fill:#000000;fill-opacity:1;stroke:none"
         id="rect3901"
         width="24"
         height="24"
         x="0"
         y="32" />
      <path
         style="fill:#ffffff;fill-opacity:0.20000000000000001;stroke:none"
         d="M 12 -47 C 5.924868 -47 1 -42.075132 1 -36 C 1 -29.924868 5.924868 -25 12 -25 C 18.075132 -25 23 -29.924868 23 -36 C 23 -42.075132 18.075132 -47 12 -47 z M 12 -46 C 17.522847 -46 22 -41.522847 22 -36 C 22 -32.725356 20.432705 -29.824101 18 -28 C 16.329829 -26.747665 14.248203 -26 12 -26 C 9.751797 -26 7.670171 -26.747665 6 -28 C 3.567295 -29.824101 2 -32.725356 2 -36 C 2 -41.522847 6.477153 -46 12 -46 z M 12 -44 C 7.581722 -44 4 -40.418278 4 -36 C 4 -33.609319 5.056342 -31.465947 6.71875 -30 L 11 -30 L 11 -34 L 9 -34 L 9 -36 L 14 -36 L 14 -30 L 17.28125 -30 C 18.943658 -31.465947 20 -33.609319 20 -36 C 20 -40.418278 16.418278 -44 12 -44 z M 12 -43 C 15.865993 -43 19 -39.865993 19 -36 C 19 -34.035858 18.177905 -32.271258 16.875 -31 L 15 -31 L 15 -37 L 12.5 -37 L 11 -37 L 8 -37 L 8 -33 L 10 -33 L 10 -31 L 7.125 -31 C 5.822095 -32.271258 5 -34.035858 5 -36 C 5 -39.865993 8.134007 -43 12 -43 z M 12.5 -37 C 13.885 -37 15 -38.115 15 -39.5 C 15 -40.885 13.885 -42 12.5 -42 C 11.115 -42 10 -40.885 10 -39.5 C 10 -38.115 11.115 -37 12.5 -37 z M 12.5 -41 C 13.328427 -41 14 -40.328427 14 -39.5 C 14 -38.671573 13.328427 -38 12.5 -38 C 11.671573 -38 11 -38.671573 11 -39.5 C 11 -40.328427 11.671573 -41 12.5 -41 z "
         transform="translate(0,80)"
         id="path3903" />
      <path
         style="fill:#262626;fill-opacity:1;stroke:none;opacity:0.2"
         d="m -12,-46 c -5.522847,0 -10,4.477153 -10,10 0,3.274644 1.567295,6.175899 4,8 1.670171,1.252335 3.751797,2 6,2 2.2482032,0 4.3298288,-0.747665 6,-2 2.4327053,-1.824101 4,-4.725356 4,-8 0,-5.522847 -4.477153,-10 -10,-10 z m 0,2 c 4.418278,0 8,3.581722 8,8 0,2.390681 -1.056342,4.534053 -2.71875,6 L -10,-30 l 0,-6 -5,0 0,2 2,0 0,4 -4.28125,0 C -18.943658,-31.465947 -20,-33.609319 -20,-36 c 0,-4.418278 3.581722,-8 8,-8 z m 0.5,3 c -0.828427,0 -1.5,0.671573 -1.5,1.5 0,0.828427 0.671573,1.5 1.5,1.5 0.828427,0 1.5,-0.671573 1.5,-1.5 0,-0.828427 -0.671573,-1.5 -1.5,-1.5 z"
         transform="translate(24,80)"
         id="path3905"
         inkscape:connector-curvature="0"
         sodipodi:nodetypes="sssssssssccccccccsssssss" />
    </g>
    <g
       transform="translate(24,-80)"
       id="24-24-notification-disabled"
       style="opacity:1">
      <rect
         y="32"
         x="0"
         height="24"
         width="24"
         id="rect3953"
         style="opacity:0;fill:#000000;fill-opacity:1;stroke:none" />
      <path
         style="fill:#ffffff;fill-opacity:0.20000000000000001;stroke:none"
         d="M 36 -47 C 29.924868 -47 25 -42.075132 25 -36 C 25 -29.924868 29.924868 -25 36 -25 C 42.075132 -25 47 -29.924868 47 -36 C 47 -42.075132 42.075132 -47 36 -47 z M 36 -46 C 41.522847 -46 46 -41.522847 46 -36 C 46 -32.725356 44.432705 -29.824101 42 -28 C 40.329829 -26.747665 38.248203 -26 36 -26 C 33.751797 -26 31.670171 -26.747665 30 -28 C 27.567295 -29.824101 26 -32.725356 26 -36 C 26 -41.522847 30.477153 -46 36 -46 z M 36 -44 C 31.581722 -44 28 -40.418278 28 -36 C 28 -33.609319 29.056342 -31.465947 30.71875 -30 L 35 -30 L 35 -34 L 33 -34 L 33 -36 L 38 -36 L 38 -30 L 41.28125 -30 C 42.943658 -31.465947 44 -33.609319 44 -36 C 44 -40.418278 40.418278 -44 36 -44 z M 36 -43 C 39.865993 -43 43 -39.865993 43 -36 C 43 -34.035858 42.177905 -32.271258 40.875 -31 L 39 -31 L 39 -37 L 36.5 -37 L 35 -37 L 32 -37 L 32 -33 L 34 -33 L 34 -31 L 31.125 -31 C 29.822095 -32.271258 29 -34.035858 29 -36 C 29 -39.865993 32.134007 -43 36 -43 z M 36.5 -37 C 37.885 -37 39 -38.115 39 -39.5 C 39 -40.885 37.885 -42 36.5 -42 C 35.115 -42 34 -40.885 34 -39.5 C 34 -38.115 35.115 -37 36.5 -37 z M 36.5 -41 C 37.328427 -41 38 -40.328427 38 -39.5 C 38 -38.671573 37.328427 -38 36.5 -38 C 35.671573 -38 35 -38.671573 35 -39.5 C 35 -40.328427 35.671573 -41 36.5 -41 z "
         transform="translate(-24,80)"
         id="path3955" />
      <path
         sodipodi:nodetypes="sssssssssccccccccsssssss"
         inkscape:connector-curvature="0"
         id="path3957"
         transform="translate(24,80)"
         d="m -12,-46 c -5.522847,0 -10,4.477153 -10,10 0,3.274644 1.567295,6.175899 4,8 1.670171,1.252335 3.751797,2 6,2 2.2482032,0 4.3298288,-0.747665 6,-2 2.4327053,-1.824101 4,-4.725356 4,-8 0,-5.522847 -4.477153,-10 -10,-10 z m 0,2 c 4.418278,0 8,3.581722 8,8 0,2.390681 -1.056342,4.534053 -2.71875,6 L -10,-30 l 0,-6 -5,0 0,2 2,0 0,4 -4.28125,0 C -18.943658,-31.465947 -20,-33.609319 -20,-36 c 0,-4.418278 3.581722,-8 8,-8 z m 0.5,3 c -0.828427,0 -1.5,0.671573 -1.5,1.5 0,0.828427 0.671573,1.5 1.5,1.5 0.828427,0 1.5,-0.671573 1.5,-1.5 0,-0.828427 -0.671573,-1.5 -1.5,-1.5 z"
         style="fill:#262626;fill-opacity:1;stroke:none;opacity:0.2" />
    </g>
    <g
       transform="translate(0,-56)"
       id="notification-inactive"
       style="opacity:1">
      <rect
         y="32"
         x="0"
         height="24"
         width="24"
         id="rect3961"
         style="opacity:0;fill:#000000;fill-opacity:1;stroke:none" />
      <path
         style="fill:#ffffff;fill-opacity:0.20000000000000001;stroke:none"
         d="M 12 -23 C 5.924868 -23 1 -18.075132 1 -12 C 1 -5.924868 5.924868 -1 12 -1 C 18.075132 -1 23 -5.924868 23 -12 C 23 -18.075132 18.075132 -23 12 -23 z M 12 -22 C 17.522847 -22 22 -17.522847 22 -12 C 22 -8.725356 20.432705 -5.824101 18 -4 C 16.329829 -2.747665 14.248203 -2 12 -2 C 9.751797 -2 7.670171 -2.747665 6 -4 C 3.567295 -5.824101 2 -8.725356 2 -12 C 2 -17.522847 6.477153 -22 12 -22 z M 12 -20 C 7.581722 -20 4 -16.418278 4 -12 C 4 -9.609319 5.056342 -7.465947 6.71875 -6 L 11 -6 L 11 -10 L 9 -10 L 9 -12 L 14 -12 L 14 -6 L 17.28125 -6 C 18.943658 -7.465947 20 -9.609319 20 -12 C 20 -16.418278 16.418278 -20 12 -20 z M 12 -19 C 15.865993 -19 19 -15.865993 19 -12 C 19 -10.035858 18.177905 -8.271258 16.875 -7 L 15 -7 L 15 -13 L 12.5 -13 L 11 -13 L 8 -13 L 8 -9 L 10 -9 L 10 -7 L 7.125 -7 C 5.822095 -8.271258 5 -10.035858 5 -12 C 5 -15.865993 8.134007 -19 12 -19 z M 12.5 -13 C 13.885 -13 15 -14.115 15 -15.5 C 15 -16.885 13.885 -18 12.5 -18 C 11.115 -18 10 -16.885 10 -15.5 C 10 -14.115 11.115 -13 12.5 -13 z M 12.5 -17 C 13.328427 -17 14 -16.328427 14 -15.5 C 14 -14.671573 13.328427 -14 12.5 -14 C 11.671573 -14 11 -14.671573 11 -15.5 C 11 -16.328427 11.671573 -17 12.5 -17 z "
         transform="translate(0,56)"
         id="path3963" />
      <path
         sodipodi:nodetypes="sssssssssccccccccsssssss"
         inkscape:connector-curvature="0"
         id="path3965"
         transform="translate(24,80)"
         d="m -12,-46 c -5.522847,0 -10,4.477153 -10,10 0,3.274644 1.567295,6.175899 4,8 1.670171,1.252335 3.751797,2 6,2 2.2482032,0 4.3298288,-0.747665 6,-2 2.4327053,-1.824101 4,-4.725356 4,-8 0,-5.522847 -4.477153,-10 -10,-10 z m 0,2 c 4.418278,0 8,3.581722 8,8 0,2.390681 -1.056342,4.534053 -2.71875,6 L -10,-30 l 0,-6 -5,0 0,2 2,0 0,4 -4.28125,0 C -18.943658,-31.465947 -20,-33.609319 -20,-36 c 0,-4.418278 3.581722,-8 8,-8 z m 0.5,3 c -0.828427,0 -1.5,0.671573 -1.5,1.5 0,0.828427 0.671573,1.5 1.5,1.5 0.828427,0 1.5,-0.671573 1.5,-1.5 0,-0.828427 -0.671573,-1.5 -1.5,-1.5 z"
         style="fill:#262626;fill-opacity:1;stroke:none" />
    </g>
    <g
       id="24-24-notification-inactive"
       transform="translate(24,-56)"
       style="opacity:1">
      <rect
         style="opacity:0;fill:#000000;fill-opacity:1;stroke:none"
         id="rect3971"
         width="24"
         height="24"
         x="0"
         y="32" />
      <path
         style="fill:#ffffff;fill-opacity:0.20000000000000001;stroke:none"
         d="M 36 -23 C 29.924868 -23 25 -18.075132 25 -12 C 25 -5.924868 29.924868 -1 36 -1 C 42.075132 -1 47 -5.924868 47 -12 C 47 -18.075132 42.075132 -23 36 -23 z M 36 -22 C 41.522847 -22 46 -17.522847 46 -12 C 46 -8.725356 44.432705 -5.824101 42 -4 C 40.329829 -2.747665 38.248203 -2 36 -2 C 33.751797 -2 31.670171 -2.747665 30 -4 C 27.567295 -5.824101 26 -8.725356 26 -12 C 26 -17.522847 30.477153 -22 36 -22 z M 36 -20 C 31.581722 -20 28 -16.418278 28 -12 C 28 -9.609319 29.056342 -7.465947 30.71875 -6 L 35 -6 L 35 -10 L 33 -10 L 33 -12 L 38 -12 L 38 -6 L 41.28125 -6 C 42.943658 -7.465947 44 -9.609319 44 -12 C 44 -16.418278 40.418278 -20 36 -20 z M 36 -19 C 39.865993 -19 43 -15.865993 43 -12 C 43 -10.035858 42.177905 -8.271258 40.875 -7 L 39 -7 L 39 -13 L 36.5 -13 L 35 -13 L 32 -13 L 32 -9 L 34 -9 L 34 -7 L 31.125 -7 C 29.822095 -8.271258 29 -10.035858 29 -12 C 29 -15.865993 32.134007 -19 36 -19 z M 36.5 -13 C 37.885 -13 39 -14.115 39 -15.5 C 39 -16.885 37.885 -18 36.5 -18 C 35.115 -18 34 -16.885 34 -15.5 C 34 -14.115 35.115 -13 36.5 -13 z M 36.5 -17 C 37.328427 -17 38 -16.328427 38 -15.5 C 38 -14.671573 37.328427 -14 36.5 -14 C 35.671573 -14 35 -14.671573 35 -15.5 C 35 -16.328427 35.671573 -17 36.5 -17 z "
         transform="translate(-24,56)"
         id="path3973" />
      <path
         style="fill:#262626;fill-opacity:1;stroke:none"
         d="m -12,-46 c -5.522847,0 -10,4.477153 -10,10 0,3.274644 1.567295,6.175899 4,8 1.670171,1.252335 3.751797,2 6,2 2.2482032,0 4.3298288,-0.747665 6,-2 2.4327053,-1.824101 4,-4.725356 4,-8 0,-5.522847 -4.477153,-10 -10,-10 z m 0,2 c 4.418278,0 8,3.581722 8,8 0,2.390681 -1.056342,4.534053 -2.71875,6 L -10,-30 l 0,-6 -5,0 0,2 2,0 0,4 -4.28125,0 C -18.943658,-31.465947 -20,-33.609319 -20,-36 c 0,-4.418278 3.581722,-8 8,-8 z m 0.5,3 c -0.828427,0 -1.5,0.671573 -1.5,1.5 0,0.828427 0.671573,1.5 1.5,1.5 0.828427,0 1.5,-0.671573 1.5,-1.5 0,-0.828427 -0.671573,-1.5 -1.5,-1.5 z"
         transform="translate(24,80)"
         id="path3975"
         inkscape:connector-curvature="0"
         sodipodi:nodetypes="sssssssssccccccccsssssss" />
    </g>
    <g
       transform="translate(24,-32)"
       id="24-24-notification-active"
       style="opacity:1">
      <rect
         y="32"
         x="0"
         height="24"
         width="24"
         id="rect3979"
         style="opacity:0;fill:#000000;fill-opacity:1;stroke:none" />
      <path
         style="fill:#ffffff;fill-opacity:0.20000000000000001;stroke:none"
         d="M 36 1 C 29.924868 1 25 5.924868 25 12 C 25 18.075132 29.924868 23 36 23 C 42.075132 23 47 18.075132 47 12 C 47 5.924868 42.075132 1 36 1 z M 36 2 C 41.522847 2 46 6.477153 46 12 C 46 15.274644 44.432705 18.175899 42 20 C 40.329829 21.252335 38.248203 22 36 22 C 33.751797 22 31.670171 21.252335 30 20 C 27.567295 18.175899 26 15.274644 26 12 C 26 6.477153 30.477153 2 36 2 z M 36 4 C 31.581722 4 28 7.581722 28 12 C 28 14.390681 29.056342 16.534053 30.71875 18 L 35 18 L 35 14 L 33 14 L 33 12 L 38 12 L 38 18 L 41.28125 18 C 42.943658 16.534053 44 14.390681 44 12 C 44 7.581722 40.418278 4 36 4 z M 36 5 C 39.865993 5 43 8.134007 43 12 C 43 13.964142 42.177905 15.728742 40.875 17 L 39 17 L 39 11 L 36.5 11 L 35 11 L 32 11 L 32 15 L 34 15 L 34 17 L 31.125 17 C 29.822095 15.728742 29 13.964142 29 12 C 29 8.134007 32.134007 5 36 5 z M 36.5 11 C 37.885 11 39 9.885 39 8.5 C 39 7.115 37.885 6 36.5 6 C 35.115 6 34 7.115 34 8.5 C 34 9.885 35.115 11 36.5 11 z M 36.5 7 C 37.328427 7 38 7.671573 38 8.5 C 38 9.328427 37.328427 10 36.5 10 C 35.671573 10 35 9.328427 35 8.5 C 35 7.671573 35.671573 7 36.5 7 z "
         transform="translate(-24,32)"
         id="path3981" />
      <path
         sodipodi:nodetypes="sssssssssccccccccsssssss"
         inkscape:connector-curvature="0"
         id="path3983"
         transform="translate(24,80)"
         d="m -12,-46 c -5.522847,0 -10,4.477153 -10,10 0,3.274644 1.567295,6.175899 4,8 1.670171,1.252335 3.751797,2 6,2 2.2482032,0 4.3298288,-0.747665 6,-2 2.4327053,-1.824101 4,-4.725356 4,-8 0,-5.522847 -4.477153,-10 -10,-10 z m 0,2 c 4.418278,0 8,3.581722 8,8 0,2.390681 -1.056342,4.534053 -2.71875,6 L -10,-30 l 0,-6 -5,0 0,2 2,0 0,4 -4.28125,0 C -18.943658,-31.465947 -20,-33.609319 -20,-36 c 0,-4.418278 3.581722,-8 8,-8 z m 0.5,3 c -0.828427,0 -1.5,0.671573 -1.5,1.5 0,0.828427 0.671573,1.5 1.5,1.5 0.828427,0 1.5,-0.671573 1.5,-1.5 0,-0.828427 -0.671573,-1.5 -1.5,-1.5 z"
         style="fill:#262626;fill-opacity:1;stroke:none" />
    </g>
    <g
       id="notification-active"
       transform="translate(0,-32)"
       style="opacity:1">
      <rect
         style="opacity:0;fill:#000000;fill-opacity:1;stroke:none"
         id="rect3987"
         width="24"
         height="24"
         x="0"
         y="32" />
      <path
         style="fill:#ffffff;fill-opacity:0.20000000000000001;stroke:none"
         d="M 12 1 C 5.924868 1 1 5.924868 1 12 C 1 18.075132 5.924868 23 12 23 C 18.075132 23 23 18.075132 23 12 C 23 5.924868 18.075132 1 12 1 z M 12 2 C 17.522847 2 22 6.477153 22 12 C 22 15.274644 20.432705 18.175899 18 20 C 16.329829 21.252335 14.248203 22 12 22 C 9.751797 22 7.670171 21.252335 6 20 C 3.567295 18.175899 2 15.274644 2 12 C 2 6.477153 6.477153 2 12 2 z M 12 4 C 7.581722 4 4 7.581722 4 12 C 4 14.390681 5.056342 16.534053 6.71875 18 L 11 18 L 11 14 L 9 14 L 9 12 L 14 12 L 14 18 L 17.28125 18 C 18.943658 16.534053 20 14.390681 20 12 C 20 7.581722 16.418278 4 12 4 z M 12 5 C 15.865993 5 19 8.134007 19 12 C 19 13.964142 18.177905 15.728742 16.875 17 L 15 17 L 15 11 L 12.5 11 L 11 11 L 8 11 L 8 15 L 10 15 L 10 17 L 7.125 17 C 5.822095 15.728742 5 13.964142 5 12 C 5 8.134007 8.134007 5 12 5 z M 12.5 11 C 13.885 11 15 9.885 15 8.5 C 15 7.115 13.885 6 12.5 6 C 11.115 6 10 7.115 10 8.5 C 10 9.885 11.115 11 12.5 11 z M 12.5 7 C 13.328427 7 14 7.671573 14 8.5 C 14 9.328427 13.328427 10 12.5 10 C 11.671573 10 11 9.328427 11 8.5 C 11 7.671573 11.671573 7 12.5 7 z "
         transform="translate(0,32)"
         id="path3989" />
      <path
         style="fill:#262626;fill-opacity:1;stroke:none"
         d="m -12,-46 c -5.522847,0 -10,4.477153 -10,10 0,3.274644 1.567295,6.175899 4,8 1.670171,1.252335 3.751797,2 6,2 2.2482032,0 4.3298288,-0.747665 6,-2 2.4327053,-1.824101 4,-4.725356 4,-8 0,-5.522847 -4.477153,-10 -10,-10 z m 0,2 c 4.418278,0 8,3.581722 8,8 0,2.390681 -1.056342,4.534053 -2.71875,6 L -10,-30 l 0,-6 -5,0 0,2 2,0 0,4 -4.28125,0 C -18.943658,-31.465947 -20,-33.609319 -20,-36 c 0,-4.418278 3.581722,-8 8,-8 z m 0.5,3 c -0.828427,0 -1.5,0.671573 -1.5,1.5 0,0.828427 0.671573,1.5 1.5,1.5 0.828427,0 1.5,-0.671573 1.5,-1.5 0,-0.828427 -0.671573,-1.5 -1.5,-1.5 z"
         transform="translate(24,80)"
         id="path3991"
         inkscape:connector-curvature="0"
         sodipodi:nodetypes="sssssssssccccccccsssssss" />
    </g>
    <g
       id="expander-bottom"
       transform="translate(-369.91653,-879.57168)">
      <path
         sodipodi:nodetypes="cccc"
         id="path4273-5"
         d="m 315.91653,912.77168 3,-3 3,3 z"
         style="fill:#262626;fill-opacity:1;fill-rule:evenodd;stroke:none"
         inkscape:connector-curvature="0" />
    </g>
    <g
       transform="matrix(1,0,0,-1,-369.91653,936.3717)"
       id="expander-top">
      <path
         style="fill:#262626;fill-opacity:1;fill-rule:evenodd;stroke:none"
         d="m 315.91653,911.7717 3,-3 3,3 z"
         id="path4308"
         sodipodi:nodetypes="cccc"
         inkscape:connector-curvature="0" />
    </g>
    <g
       id="expander-right"
       transform="matrix(0,0.9962329,0.993516,0,-953.83718,-288.74528)">
      <path
         sodipodi:nodetypes="cccc"
         id="path4262"
         d="m 315.93544,912.75549 3.01134,-3.01958 3.01135,3.01958 z"
         style="fill:#262626;fill-opacity:1;fill-rule:evenodd;stroke:none"
         inkscape:connector-curvature="0" />
    </g>
    <g
       transform="matrix(0,0.9962329,-0.993516,0,850.83718,-288.72644)"
       id="expander-left">
      <path
         style="fill:#262626;fill-opacity:1;fill-rule:evenodd;stroke:none"
         d="m 315.91653,911.74896 3.01134,-3.01958 3.01135,3.01958 z"
         id="path4290"
         sodipodi:nodetypes="cccc"
         inkscape:connector-curvature="0" />
    </g>
  </g>
</svg>
