<?xml version="1.0" encoding="UTF-8" standalone="no"?>
<!-- Created with Inkscape (http://www.inkscape.org/) -->

<svg
   xmlns:dc="http://purl.org/dc/elements/1.1/"
   xmlns:cc="http://creativecommons.org/ns#"
   xmlns:rdf="http://www.w3.org/1999/02/22-rdf-syntax-ns#"
   xmlns:svg="http://www.w3.org/2000/svg"
   xmlns="http://www.w3.org/2000/svg"
   xmlns:sodipodi="http://sodipodi.sourceforge.net/DTD/sodipodi-0.dtd"
   xmlns:inkscape="http://www.inkscape.org/namespaces/inkscape"
   version="1.1"
   width="24"
   height="24"
   id="svg3314"
   inkscape:version="0.48.4 r9939"
   sodipodi:docname="presence-applet.svg">
  <title
     id="title3021">Tilain</title>
  <sodipodi:namedview
     pagecolor="#b2b2b2"
     bordercolor="#000000"
     borderopacity="1"
     objecttolerance="10"
     gridtolerance="10"
     guidetolerance="10"
     inkscape:pageopacity="1"
     inkscape:pageshadow="2"
     inkscape:window-width="1920"
     inkscape:window-height="1030"
     id="namedview64"
     showgrid="true"
     borderlayer="true"
     inkscape:zoom="10.541351"
     inkscape:cx="35.365958"
     inkscape:cy="10.553132"
     inkscape:window-x="0"
     inkscape:window-y="23"
     inkscape:window-maximized="1"
     inkscape:current-layer="svg3314"
     showguides="true"
     inkscape:guide-bbox="true">
    <inkscape:grid
       type="xygrid"
       id="grid3017"
       empspacing="5"
       visible="true"
       enabled="true"
       snapvisiblegridlinesonly="true" />
    <sodipodi:guide
       orientation="0,1"
       position="24,4"
       id="guide3019" />
    <sodipodi:guide
       orientation="0,1"
       position="24,20"
       id="guide3021" />
  </sodipodi:namedview>
  <defs
     id="defs3316" />
  <metadata
     id="metadata3319">
    <rdf:RDF>
      <cc:Work
         rdf:about="">
        <dc:format>image/svg+xml</dc:format>
        <dc:type
           rdf:resource="http://purl.org/dc/dcmitype/StillImage" />
        <dc:title>Tilain</dc:title>
      </cc:Work>
    </rdf:RDF>
  </metadata>
  <g
     inkscape:groupmode="layer"
     id="layer2"
     inkscape:label="Ebene#1">
    <g
       transform="translate(0,-104)"
       id="user-online-plasma"
       style="opacity:1">
      <rect
         style="fill:#ffffff;fill-opacity:0;stroke:none"
         id="rect3037"
         width="24"
         height="24"
         x="0"
         y="0"
         transform="translate(0,104)" />
      <path
         style="opacity:0.2;fill:#ffffff"
         d="M 12 3 C 7.0294373 3 3 7.0294373 3 12 L 3 15 L 3 18 C 3 19.662 4.338 21 6 21 L 9 21 L 12 21 C 16.970563 21 21 16.970563 21 12 C 21 7.0294373 16.970563 3 12 3 z M 12 4 C 16.418278 4 20 7.581722 20 12 C 20 16.418278 16.418278 20 12 20 L 7 20 L 6 20 C 4.892 20 4 19.108 4 18 L 4 17 L 4 12 C 4 7.581722 7.581722 4 12 4 z M 12 6 C 8.6862915 6 6 8.6862915 6 12 L 9 9 L 12 12 L 15 9 L 18 12 C 18 8.6862915 15.313708 6 12 6 z M 18 12 L 17 13 L 15 11 L 13 13 L 12 12 L 11 13 L 9 11 L 7 13 L 6 12 C 6 15.313708 8.6862915 18 12 18 C 15.313708 18 18 15.313708 18 12 z M 12 7 C 13.130316 7 14.162551 7.3675368 15 8 L 12 11 L 9 8 C 9.8374488 7.3675368 10.869684 7 12 7 z M 9 12 L 11 14 L 12 13 L 13 14 L 15 12 L 16.6875 13.6875 C 15.991569 15.611652 14.164266 17 12 17 C 9.8357342 17 8.0084307 15.611652 7.3125 13.6875 L 9 12 z "
         transform="translate(0,104)"
         id="path3849" />
      <path
         style="fill:#262626;fill-opacity:1;stroke:none"
         d="M 12 4 C 7.581722 4 4 7.581722 4 12 L 4 17 L 4 18 C 4 19.108 4.892 20 6 20 L 7 20 L 12 20 C 16.418278 20 20 16.418278 20 12 C 20 7.581722 16.418278 4 12 4 z M 12 6 C 15.313708 6 18 8.6862915 18 12 C 18 15.313708 15.313708 18 12 18 C 8.6862915 18 6 15.313708 6 12 C 6 8.6862915 8.6862915 6 12 6 z M 6 12 L 7 13 L 9 11 L 11 13 L 12 12 L 9 9 L 6 12 z M 12 12 L 13 13 L 15 11 L 17 13 L 18 12 L 15 9 L 12 12 z "
         transform="translate(0,104)"
         id="path3842" />
    </g>
    <g
       id="user-busy-plasma"
       transform="translate(120,-104)"
       style="opacity:1">
      <rect
         transform="translate(0,104)"
         y="0"
         x="0"
         height="24"
         width="24"
         id="rect3861"
         style="fill:#ffffff;fill-opacity:0;stroke:none" />
      <path
         style="opacity:0.2;fill:#ffffff"
         d="M 132 3 C 127.02944 3 123 7.0294373 123 12 L 123 15 L 123 18 C 123 19.662 124.338 21 126 21 L 129 21 L 132 21 C 136.97056 21 141 16.970563 141 12 C 141 7.0294373 136.97056 3 132 3 z M 132 4 C 136.41828 4 140 7.581722 140 12 C 140 16.418278 136.41828 20 132 20 L 127 20 L 126 20 C 124.892 20 124 19.108 124 18 L 124 17 L 124 12 C 124 7.581722 127.58172 4 132 4 z M 132 6 C 128.68629 6 126 8.6862915 126 12 C 126 15.313708 128.68629 18 132 18 C 135.31371 18 138 15.313708 138 12 C 138 8.6862915 135.31371 6 132 6 z M 132 7 C 134.04569 7 135.78823 8.2404781 136.5625 10 L 127.4375 10 C 128.21177 8.2404781 129.95431 7 132 7 z M 128 11 L 136 11 L 136 13 L 128 13 L 128 11 z M 127.4375 14 L 136.5625 14 C 135.78823 15.759522 134.04569 17 132 17 C 129.95431 17 128.21177 15.759522 127.4375 14 z "
         transform="translate(-120,104)"
         id="path3863" />
      <path
         style="fill:#262626;fill-opacity:1;stroke:none"
         d="M 132 4 C 127.58172 4 124 7.581722 124 12 L 124 17 L 124 18 C 124 19.108 124.892 20 126 20 L 127 20 L 132 20 C 136.41828 20 140 16.418278 140 12 C 140 7.581722 136.41828 4 132 4 z M 132 6 C 135.31371 6 138 8.6862915 138 12 C 138 15.313708 135.31371 18 132 18 C 128.68629 18 126 15.313708 126 12 C 126 8.6862915 128.68629 6 132 6 z M 128 11 L 128 13 L 136 13 L 136 11 L 128 11 z "
         transform="translate(-120,104)"
         id="path3865" />
    </g>
    <g
       transform="translate(24,-104)"
       id="user-offline-plasma"
       style="opacity:1">
      <rect
         style="fill:#ffffff;fill-opacity:0;stroke:none"
         id="rect3901"
         width="24"
         height="24"
         x="0"
         y="0"
         transform="translate(0,104)" />
      <path
         style="opacity:0.2;fill:#ffffff"
         d="M 36 3 C 31.029437 3 27 7.0294373 27 12 L 27 15 L 27 18 C 27 19.662 28.338 21 30 21 L 33 21 L 36 21 C 40.970563 21 45 16.970563 45 12 C 45 7.0294373 40.970563 3 36 3 z M 36 4 C 40.418278 4 44 7.581722 44 12 C 44 16.418278 40.418278 20 36 20 L 31 20 L 30 20 C 28.892 20 28 19.108 28 18 L 28 17 L 28 12 C 28 7.581722 31.581722 4 36 4 z M 36 6 C 32.686292 6 30 8.6862915 30 12 C 30 15.313708 32.686292 18 36 18 C 39.313708 18 42 15.313708 42 12 C 42 8.6862915 39.313708 6 36 6 z M 36 7 C 36.610965 7 37.177556 7.1431686 37.71875 7.34375 L 36 9.375 L 34.28125 7.34375 C 34.822444 7.1431686 35.389035 7 36 7 z M 34 8 L 36 10 L 38 8 L 40 10 L 38 12 L 40 14 L 38 16 L 36 14 L 34 16 L 32 14 L 34 12 L 32 10 L 34 8 z M 31.3125 10.3125 L 33 12 L 31.3125 13.6875 C 31.120481 13.156594 31 12.597158 31 12 C 31 11.402842 31.120481 10.843406 31.3125 10.3125 z M 40.6875 10.3125 C 40.879519 10.843406 41 11.402842 41 12 C 41 12.597158 40.879519 13.156594 40.6875 13.6875 L 39 12 L 40.6875 10.3125 z M 36 15 L 37.6875 16.6875 C 37.156594 16.879519 36.597158 17 36 17 C 35.402842 17 34.843406 16.879519 34.3125 16.6875 L 36 15 z "
         transform="translate(-24,104)"
         id="path3903" />
      <path
         style="fill:#262626;fill-opacity:1;stroke:none;opacity:0.2"
         d="M 36 4 C 31.581722 4 28 7.581722 28 12 L 28 17 L 28 18 C 28 19.108 28.892 20 30 20 L 31 20 L 36 20 C 40.418278 20 44 16.418278 44 12 C 44 7.581722 40.418278 4 36 4 z M 36 6 C 39.313708 6 42 8.6862915 42 12 C 42 15.313708 39.313708 18 36 18 C 32.686292 18 30 15.313708 30 12 C 30 8.6862915 32.686292 6 36 6 z M 34 8 L 32 10 L 34 12 L 32 14 L 34 16 L 36 14 L 38 16 L 40 14 L 38 12 L 40 10 L 38 8 L 36 10 L 34 8 z "
         transform="translate(-24,104)"
         id="path3905" />
    </g>
    <g
       transform="translate(72,-104)"
       id="user-away-plasma"
       style="opacity:1">
      <rect
         style="fill:#ffffff;fill-opacity:0;stroke:none"
         id="rect3915"
         width="24"
         height="24"
         x="0"
         y="0"
         transform="translate(0,104)" />
      <path
         style="opacity:0.2;fill:#ffffff"
         d="M 84 3 C 79.029437 3 75 7.0294373 75 12 L 75 15 L 75 18 C 75 19.662 76.338 21 78 21 L 81 21 L 84 21 C 88.970563 21 93 16.970563 93 12 C 93 7.0294373 88.970563 3 84 3 z M 84 4 C 88.418278 4 92 7.581722 92 12 C 92 16.418278 88.418278 20 84 20 L 79 20 L 78 20 C 76.892 20 76 19.108 76 18 L 76 17 L 76 12 C 76 7.581722 79.581722 4 84 4 z M 84 6 C 80.686292 6 78 8.6862915 78 12 C 78 15.313708 80.686292 18 84 18 C 87.313708 18 90 15.313708 90 12 C 90 8.6862915 87.313708 6 84 6 z M 84 7 C 86.761424 7 89 9.2385763 89 12 C 89 14.761424 86.761424 17 84 17 C 81.954307 17 80.211772 15.759522 79.4375 14 L 84 14 L 84 15 L 85 16 L 89 12 L 85 8 L 84 9 L 84 10 L 79.4375 10 C 80.211772 8.2404781 81.954307 7 84 7 z M 85 9 L 88 12 L 85 15 L 85 13 L 80 13 L 80 11 L 85 11 L 85 9 z "
         transform="translate(-72,104)"
         id="path3917" />
      <path
         style="fill:#262626;fill-opacity:1;stroke:none"
         d="M 84 4 C 79.581722 4 76 7.581722 76 12 L 76 17 L 76 18 C 76 19.108 76.892 20 78 20 L 79 20 L 84 20 C 88.418278 20 92 16.418278 92 12 C 92 7.581722 88.418278 4 84 4 z M 84 6 C 87.313708 6 90 8.6862915 90 12 C 90 15.313708 87.313708 18 84 18 C 80.686292 18 78 15.313708 78 12 C 78 8.6862915 80.686292 6 84 6 z M 85 9 L 85 11 L 80 11 L 80 13 L 85 13 L 85 15 L 88 12 L 85 9 z "
         transform="translate(-72,104)"
         id="path3919" />
    </g>
    <g
       id="user-invisible-plasma"
       transform="translate(48,-104)"
       style="opacity:1">
      <rect
         transform="translate(0,104)"
         y="0"
         x="0"
         height="24"
         width="24"
         id="rect3925"
         style="fill:#ffffff;fill-opacity:0;stroke:none" />
      <path
         style="opacity:0.2;fill:#ffffff"
         d="M 60 3 C 55.029437 3 51 7.0294373 51 12 L 51 15 L 51 18 C 51 19.662 52.338 21 54 21 L 57 21 L 60 21 C 64.970563 21 69 16.970563 69 12 C 69 7.0294373 64.970563 3 60 3 z M 60 4 C 64.418278 4 68 7.581722 68 12 C 68 16.418278 64.418278 20 60 20 L 55 20 L 54 20 C 52.892 20 52 19.108 52 18 L 52 17 L 52 12 C 52 7.581722 55.581722 4 60 4 z M 60 6 C 56.686291 6 54 8.6862915 54 12 C 54 15.313708 56.686291 18 60 18 C 63.313708 18 66 15.313708 66 12 C 66 8.6862915 63.313708 6 60 6 z M 60 7 C 62.761424 7 65 9.2385763 65 12 C 65 14.761424 62.761424 17 60 17 C 57.238576 17 55 14.761424 55 12 C 55 9.2385763 57.238576 7 60 7 z M 60 8 C 57.790861 8 56 9.790861 56 12 C 56 14.209139 57.790861 16 60 16 C 62.209139 16 64 14.209139 64 12 C 64 9.790861 62.209139 8 60 8 z M 60 9 C 61.656854 9 63 10.343146 63 12 C 63 13.656854 61.656854 15 60 15 C 58.343146 15 57 13.656854 57 12 C 57 10.343146 58.343146 9 60 9 z "
         transform="translate(-48,104)"
         id="path3927" />
      <path
         style="fill:#262626;fill-opacity:1;stroke:none"
         d="M 60 4 C 55.581722 4 52 7.581722 52 12 L 52 17 L 52 18 C 52 19.108 52.892 20 54 20 L 55 20 L 60 20 C 64.418278 20 68 16.418278 68 12 C 68 7.581722 64.418278 4 60 4 z M 60 6 C 63.313708 6 66 8.6862915 66 12 C 66 15.313708 63.313708 18 60 18 C 56.686291 18 54 15.313708 54 12 C 54 8.6862915 56.686291 6 60 6 z M 60 9 C 58.343146 9 57 10.343146 57 12 C 57 13.656854 58.343146 15 60 15 C 61.656854 15 63 13.656854 63 12 C 63 10.343146 61.656854 9 60 9 z "
         transform="translate(-48,104)"
         id="path3929" />
    </g>
    <g
       id="user-away-extended-plasma"
       transform="translate(96,-104)"
       style="opacity:1">
      <rect
         transform="translate(0,104)"
         y="0"
         x="0"
         height="24"
         width="24"
         id="rect3850"
         style="fill:#ffffff;fill-opacity:0;stroke:none" />
      <path
         style="opacity:0.2;fill:#ffffff"
         d="M 108 3 C 103.02944 3 99 7.0294373 99 12 L 99 15 L 99 18 C 99 19.662 100.338 21 102 21 L 105 21 L 108 21 C 112.97056 21 117 16.970563 117 12 C 117 7.0294373 112.97056 3 108 3 z M 108 4 C 112.41828 4 116 7.581722 116 12 C 116 16.418278 112.41828 20 108 20 L 103 20 L 102 20 C 100.892 20 100 19.108 100 18 L 100 17 L 100 12 C 100 7.581722 103.58172 4 108 4 z M 108 6 C 104.68629 6 102 8.6862915 102 12 C 102 15.313708 104.68629 18 108 18 C 111.31371 18 114 15.313708 114 12 C 114 8.6862915 111.31371 6 108 6 z M 108 7 C 110.76142 7 113 9.2385763 113 12 C 113 14.761424 110.76142 17 108 17 C 105.95431 17 104.21177 15.759522 103.4375 14 L 108 14 L 108 15 L 109 16 L 113 12 L 109 8 L 108 9 L 108 10 L 103.4375 10 C 104.21177 8.2404781 105.95431 7 108 7 z M 109 9 L 112 12 L 109 15 L 109 13 L 104 13 L 104 11 L 109 11 L 109 9 z "
         transform="translate(-96,104)"
         id="path3852" />
      <path
         style="fill:#262626;fill-opacity:1;stroke:none"
         d="M 108 4 C 103.58172 4 100 7.581722 100 12 L 100 17 L 100 18 C 100 19.108 100.892 20 102 20 L 103 20 L 108 20 C 112.41828 20 116 16.418278 116 12 C 116 7.581722 112.41828 4 108 4 z M 108 6 C 111.31371 6 114 8.6862915 114 12 C 114 15.313708 111.31371 18 108 18 C 104.68629 18 102 15.313708 102 12 C 102 8.6862915 104.68629 6 108 6 z M 109 9 L 109 11 L 104 11 L 104 13 L 109 13 L 109 15 L 112 12 L 109 9 z "
         transform="translate(-96,104)"
         id="path3854" />
    </g>
  </g>
</svg>
