<?xml version="1.0" encoding="UTF-8" standalone="no"?>
<svg
   xmlns:dc="http://purl.org/dc/elements/1.1/"
   xmlns:cc="http://creativecommons.org/ns#"
   xmlns:rdf="http://www.w3.org/1999/02/22-rdf-syntax-ns#"
   xmlns:svg="http://www.w3.org/2000/svg"
   xmlns="http://www.w3.org/2000/svg"
   xmlns:sodipodi="http://sodipodi.sourceforge.net/DTD/sodipodi-0.dtd"
   xmlns:inkscape="http://www.inkscape.org/namespaces/inkscape"
   height="32px"
   id="Layer_2"
   style="enable-background:new 0 0 32 32;"
   version="1.1"
   viewBox="0 0 32 32"
   width="32px"
   xml:space="preserve"
   inkscape:version="0.48.5 r10040"
   sodipodi:docname="ark.svg"><metadata
     id="metadata19"><rdf:RDF><cc:Work
         rdf:about=""><dc:format>image/svg+xml</dc:format><dc:type
           rdf:resource="http://purl.org/dc/dcmitype/StillImage" /></cc:Work></rdf:RDF></metadata><defs
     id="defs17" /><sodipodi:namedview
     pagecolor="#ffffff"
     bordercolor="#000000"
     borderopacity="1"
     objecttolerance="10"
     gridtolerance="10"
     guidetolerance="10"
     inkscape:pageopacity="0"
     inkscape:pageshadow="2"
     inkscape:window-width="1366"
     inkscape:window-height="706"
     id="namedview15"
     showgrid="false"
     inkscape:zoom="7.375"
     inkscape:cx="16"
     inkscape:cy="16.067797"
     inkscape:window-x="-9"
     inkscape:window-y="-5"
     inkscape:window-maximized="1"
     inkscape:current-layer="Layer_2" /><style
     type="text/css"
     id="style3">
	.st0{fill:none;stroke:#000000;stroke-width:0.5;stroke-miterlimit:10;}
	.st1{fill:none;stroke:#000000;stroke-miterlimit:10;}
	.st2{fill:#000000;}
	.st3{fill:none;stroke:#000000;stroke-linecap:round;stroke-miterlimit:10;}
	.st4{fill-rule:evenodd;clip-rule:evenodd;fill:none;stroke:#000000;stroke-width:0.5;stroke-miterlimit:10;}
</style><g
     id="g5"><path
       class="st2"
       d="M20.75,4.35l8.095,4.704l-4.729,3.18l4.729,3.178l-4.746,2.759l-0.011,3.423l-8.094,4.704l-8.146-4.704   l0.011-3.457l-4.688-2.725l4.703-3.161v-0.017l0.016-0.01l-4.719-3.17l8.095-4.704l4.742,3.186L20.75,4.35 M20.712,3.171   l-0.52,0.349L16.008,6.33L11.823,3.52l-0.52-0.349l-0.541,0.314L2.668,8.189L1.286,8.992l1.327,0.892l3.495,2.348l-3.495,2.35   l-1.326,0.892l1.381,0.803l4.188,2.435l-0.009,2.88l-0.002,0.579l0.502,0.29l8.146,4.704l0.502,0.289l0.501-0.291l8.094-4.704   l0.495-0.288l0.002-0.573l0.009-2.85l4.251-2.471l1.382-0.803l-1.327-0.892l-3.494-2.348l3.494-2.35l1.326-0.892l-1.381-0.803   l-8.095-4.704L20.712,3.171L20.712,3.171z"
       id="path7" /></g><polygon
     class="st0"
     points="24.522,12.067 16.01,7.152 7.525,12.067 16.037,16.981 "
     id="polygon9" /><polyline
     class="st0"
     points="24.488,18.23 20.979,20.27 16.021,16.921 11.036,20.27 7.51,18.219 "
     id="polyline11" /><polyline
     class="st0"
     points="16.056,7.503 16.021,16.921 16.021,26.749 "
     id="polyline13"
     style="fill:#000000;fill-opacity:0" /></svg>