<?xml version="1.0" ?><!DOCTYPE svg  PUBLIC '-//W3C//DTD SVG 1.1//EN'  'http://www.w3.org/Graphics/SVG/1.1/DTD/svg11.dtd'><svg enable-background="new 0 0 24 24" height="24px" id="Layer_1" version="1.1" viewBox="0 0 24 24" width="24px" xml:space="preserve" xmlns="http://www.w3.org/2000/svg" xmlns:xlink="http://www.w3.org/1999/xlink"><g><path d="M20.136,13.722c-0.381-0.653-0.893-1.161-1.542-1.521c-0.447-0.26-1.092-0.496-1.938-0.71   c0.786-0.271,1.418-0.606,1.901-1.02c0.479-0.407,0.85-0.879,1.105-1.416c0.252-0.536,0.382-1.101,0.382-1.699   c0-0.818-0.241-1.572-0.723-2.259c-0.485-0.683-1.174-1.212-2.069-1.577c-0.521-0.213-1.167-0.357-1.911-0.445V0.415L12.814,0   v2.967h-1.627V0.315L8.66,0v2.967H3.293V5.47h0.71c0.475,0,0.795,0.044,0.967,0.126C5.137,5.685,5.256,5.8,5.326,5.945   c0.07,0.148,0.102,0.489,0.102,1.025v10.072c0,0.522-0.034,0.864-0.102,1.017c-0.07,0.149-0.188,0.265-0.356,0.35   c-0.171,0.079-0.492,0.12-0.967,0.12h-0.71v2.504H8.66v2.49L11.185,24v-2.967h1.57c0.02,0,0.038-0.002,0.06-0.002v2.543L15.34,24   v-3.117c0.814-0.104,1.502-0.271,2.049-0.486c1.056-0.424,1.873-1.041,2.45-1.847c0.58-0.808,0.866-1.688,0.866-2.646   C20.704,15.102,20.513,14.375,20.136,13.722z M9.896,5.883h1.98c1.156,0,1.956,0.072,2.407,0.215   c0.45,0.143,0.792,0.384,1.028,0.715c0.237,0.342,0.358,0.747,0.358,1.219c0,0.461-0.126,0.862-0.377,1.214   c-0.251,0.35-0.624,0.611-1.12,0.78c-0.496,0.176-1.262,0.26-2.297,0.26h-1.98V5.883z M15.488,17.043   c-0.353,0.449-0.78,0.742-1.284,0.885c-0.502,0.144-1.139,0.217-1.905,0.217h-1.318c-0.44,0-0.709-0.023-0.808-0.071   c-0.101-0.05-0.171-0.133-0.214-0.252c-0.037-0.097-0.056-0.418-0.063-0.975v-3.907h2.333c1.028,0,1.791,0.096,2.289,0.285   s0.874,0.471,1.122,0.842c0.253,0.371,0.375,0.825,0.375,1.361C16.018,16.053,15.841,16.592,15.488,17.043z"/></g></svg>