<?xml version="1.0" ?><svg enable-background="new 0 0 515.91 728.5" height="512" id="Layer_1" version="1.1" viewBox="0 0 512.00003 512" width="512" xml:space="preserve" xmlns="http://www.w3.org/2000/svg" xmlns:cc="http://creativecommons.org/ns#" xmlns:dc="http://purl.org/dc/elements/1.1/" xmlns:inkscape="http://www.inkscape.org/namespaces/inkscape" xmlns:rdf="http://www.w3.org/1999/02/22-rdf-syntax-ns#" xmlns:sodipodi="http://sodipodi.sourceforge.net/DTD/sodipodi-0.dtd" xmlns:svg="http://www.w3.org/2000/svg"><defs id="defs7"/><g id="g4306" transform="translate(136.1786,108.25001)"><path d="m -733.62329,72.267944 c 0,203.804876 -165.21649,369.021366 -369.02141,369.021366 -203.8048,0 -369.0213,-165.21649 -369.0213,-369.021366 0,-203.804874 165.2165,-369.021364 369.0213,-369.021364 203.80492,0 369.02141,165.21649 369.02141,369.021364 z" id="path5010" style="fill:#000000;fill-opacity:1;fill-rule:nonzero;stroke:none" transform="matrix(0.69372682,0,0,0.69372682,884.75558,97.615782)"/><g id="g4728" transform="matrix(0.70855382,0,0,0.70855382,-2119.909,-1833.1781)"><polygon id="polygon239-7-7" points="388.551,252.99 382.525,260.019 377.505,259.015 384.534,252.99 " style="fill:#ffffff;fill-opacity:1" transform="translate(2906.5314,2539.6145)"/><path d="m 3291.0654,2802.6456 2.008,3.012 2.009,5.021 h 6.024 l 3.013,-4.016 h 5.021 l 1.004,6.024 6.024,3.013 c 0,0 5.021,-3.013 7.029,-4.017 2.008,-1.005 -2.008,15.062 -4.017,18.074 -2.008,3.012 -6.024,9.037 -6.024,11.045 0,2.009 -4.017,6.024 -5.021,7.029 -1.005,1.004 -11.046,1.004 -10.042,-1.005 1.005,-2.008 1.005,-3.012 1.005,-3.012 l -11.046,-4.017 -2.008,-21.087 v -8.033 l -3.013,-1.004 2.009,-5.021 4.016,3.013 2.009,-5.019 z" id="path241-6-9" style="fill:#ffffff;fill-opacity:1"/><polygon id="polygon243-1-3" points="358.427,314.241 358.427,307.212 361.439,303.196 364.451,293.154 366.46,293.154 367.464,303.196 362.443,308.217 362.443,315.245 " style="fill:#ffffff;fill-opacity:1" transform="translate(2906.5314,2539.6145)"/><polygon id="polygon245-8-1" points="336.336,279.097 328.303,291.146 332.319,293.154 347.382,273.072 " style="fill:#ffffff;fill-opacity:1" transform="translate(2906.5314,2539.6145)"/><path d="m 3172.5794,2629.9365 9.037,2.008 h 3.012 l -18.074,15.062 -14.058,8.033 -1.004,-6.025 c 0,0 2.008,-5.021 5.021,-7.029 3.013,-2.008 11.045,-10.041 12.05,-11.045 1.003,-1.004 4.016,-1.004 4.016,-1.004 z" id="path247-9-9" style="fill:#ffffff;fill-opacity:1"/><path d="m 3192.6614,2630.9405 c 0,0 -1.004,4.017 1.004,5.0211 2.009,1.0039 5.021,1.0039 6.025,1.0039 1.004,0 4.016,-1.0039 4.016,-1.0039 l -2.008,-3.0121 -9.037,-2.009 z" id="path249-2-8" style="fill:#ffffff;fill-opacity:1"/><polygon id="polygon251-7-6" points="269.06,106.388 274.08,105.384 275.085,111.409 272.072,113.417 267.052,111.409 " style="fill:#ffffff;fill-opacity:1" transform="translate(2906.5314,2539.6145)"/><path d="m 3334.9524,2769.1876 c -3.747,-61.928 -44.411,-113.89 -100.282,-134.157 l -14.897,0.931 -5.021,5.021 -6.024,-5.021 v 6.025 l 3.012,3.012 -2.008,1.004 -10.041,2.008 -26.107,12.049 2.008,13.054 -2.008,-1.004 -2.009,4.017 7.029,13.054 -1.004,3.012 -5.021,1.004 1.004,9.037 h -4.017 v 7.029 l -33.136,26.1069 1.004,10.042 21.086,23.095 20.083,-1.004 10.041,-1.004 v 8.033 l 4.017,10.041 3.013,8.033 v 20.083 l 6.024,12.0501 7.029,18.074 16.065,-3.013 6.024,-6.024 10.042,-19.079 19.078,-14.058 3.013,-10.041 21.086,-20.082 1.005,7.029 6.024,1.004 1.004,-10.042 -4.017,-6.025 -8.033,-4.0161 9.037,-2.0079 4.017,1.004 v -5.0211 l 5.021,2.008 -2.008,7.029 -1.004,7.029 4.017,3.012 c 0,0 2.008,-3.012 5.021,-6.024 3.012,-3.0129 9.037,-6.025 11.045,-4.0169 2.009,2.0079 -1.004,13.054 -1.004,13.054 l -3.013,4.017 -2.008,8.032 -3.013,-1.004 -2.008,-7.028 h -5.021 l -3.013,8.032 5.021,5.021 h 9.037 l 8.033,-8.032 c 0,0 -3.013,-18.074 4.017,-16.066 7.028,2.008 5.021,18.074 5.021,18.074 l 7.739,-16.39 z m -143.295,-59.925 c -1.004,0 -9.037,0 -9.037,0 l 5.021,-4.017 4.017,-4.017 c 1.004,0 9.037,2.008 9.037,2.008 l 7.028,5.021 -3.012,3.013 c 0,0 -12.05,-2.008 -13.054,-2.008 z m 47.193,0 -1.004,2.0079 -8.033,1.004 -1.004,3.013 -6.024,1.004 -1.005,2.008 -10.041,-3.012 -4.017,-2.008 5.021,-4.017 1.005,-3.012 h 3.012 l 2.009,2.008 8.033,-1.004 2.008,-4.017 7.029,3.013 6.024,1.004 -3.013,2.008 z m 8.034,-10.042 -5.021,2.0079 -6.024,2.008 -1.005,-4.017 6.025,-2.0079 1.004,-4.017 5.021,5.021 v 1.005 z m 23.094,64.2649 c 0,0 -5.021,-12.049 -7.028,-15.0619 -2.009,-3.0121 -12.05,-20.0831 -12.05,-20.0831 0,0 11.045,13.0541 15.062,19.0791 4.017,6.024 7.029,12.049 7.029,12.049 l 3.013,4.0169 h -6.026 z" id="path253-9-5" style="fill:#ffffff;fill-opacity:1"/><path d="m 3203.7064,2915.1076 -4.016,1.004 v 3.012 l -6.025,-2.008 -3.012,-6.024 -6.025,3.012 -6.024,4.017 -10.041,-2.008 -2.009,-3.013 -18.074,-1.004 -5.021,4.017 -5.021,-2.009 1.004,-6.024 -6.024,-1.004 -3.013,7.028 -15.062,-1.004 9.137,6.6 c 17.92,7.39 37.551,11.475 58.139,11.475 15.364,0 30.194,-2.278 44.182,-6.503 v -4.542 h -15.063 l -8.032,-5.022 z" id="path255-5-0" style="fill:#ffffff;fill-opacity:1"/><path d="m 2978.4721,2552.8591 c -0.769,0 -1.541,0.2921 -2.125,0.875 l -17.5313,17.5 c -1.168,1.1661 -1.1689,3.083 0,4.25 l 24.6876,24.75 -6.2188,6.2188 c -1.945,1.945 -2.3492,5.4715 -0.9062,7.8125 l 44.125,71.5313 c -6.9246,12.0742 -12.546,24.9873 -16.6563,38.5624 l -81.4063,15.125 c -2.704,0.5011 -4.9062,3.1563 -4.9062,5.9063 l 0,52.25 c 0,2.75 2.199,5.5233 4.875,6.1563 l 78.625,18.6562 c 4.0196,16.686 10.3048,32.4898 18.4688,47.0938 l -45.9376,66.875 c -1.5569,2.2669 -1.2262,5.7122 0.7188,7.6562 l 36.9375,36.9375 c 1.161,1.16 2.9008,1.7813 4.5937,1.7813 1.145,0 2.2738,-0.2931 3.2188,-0.875 l 68.8125,-42.4376 c 13.5692,8.0086 28.2293,14.3883 43.7187,18.7813 l 14,75.4375 c 0.5011,2.704 3.1563,4.9062 5.9063,4.9062 l 52.25,0 c 2.75,0 5.5233,-2.199 6.1563,-4.875 l 17.5,-73.8124 c 17.3926,-4.2769 33.8127,-10.9826 48.9062,-19.75 l 64.1875,44.0937 c 0.969,0.666 2.1527,1 3.3437,1 1.5941,0 3.1985,-0.5745 4.3126,-1.6875 l 8.9687,-8.9688 24.6875,24.7188 c 0.583,0.584 1.356,0.875 2.125,0.875 0.769,0 1.541,-0.293 2.125,-0.875 l 17.5312,-17.5 c 1.1681,-1.166 1.169,-3.082 0,-4.25 l -24.7187,-24.7188 6.25,-6.25 c 1.944,-1.944 2.3492,-5.4402 0.9063,-7.7812 l -41.4376,-67.1875 c 5.9226,-10.2808 10.8802,-21.1679 14.7813,-32.5625 l -26.4687,-6.4375 c -22.1661,61.546 -81.0661,105.5625 -150.25,105.5625 -88.1751,0 -159.6563,-71.4802 -159.6563,-159.6562 0,-68.111 42.6365,-126.2506 102.6875,-149.1876 l -5.375,-26.9062 c -10.3474,3.6627 -20.269,8.2192 -29.6875,13.5625 l -68.6875,-47.1875 c -0.969,-0.666 -2.1537,-1 -3.3438,-1 -1.594,0 -3.1994,0.5745 -4.3124,1.6875 l -8.9688,8.9687 -24.6875,-24.75 c -0.583,-0.585 -1.356,-0.875 -2.125,-0.875 z m 134.3437,63.25 1.4376,7.125 c -60.919,26.893 -101.2813,88.2666 -101.2813,155.3126 0,93.5479 76.1073,169.6562 169.6563,169.6562 68.315,0 130.0499,-41.3543 156.375,-103.7812 l 7,1.6874 c -27.167,65.7421 -91.482,109.2188 -163.375,109.2188 -47.216,0 -91.6131,-18.3953 -125,-51.7812 -33.3871,-33.386 -51.7813,-77.783 -51.7813,-125 0,-37.274 11.4693,-72.9076 33.1563,-103.0626 18.9589,-26.361 44.3114,-46.7169 73.8124,-59.375 z" id="path259-3-2" style="fill:#ffffff;fill-opacity:1"/><path d="m 3120.2884,2602.4486 c -72.497,25.6619 -124.436,94.81 -124.436,176.099 0,103.149 83.619,186.767 186.767,186.767 81.964,0 151.59,-52.801 176.734,-126.243 l -26.487,-6.421 c -22.166,61.546 -81.063,105.553 -150.247,105.553 -88.175,0 -159.656,-71.479 -159.656,-159.655 0,-68.111 42.656,-126.25 102.707,-149.187 z" id="path275-8-8" style="fill:#ffffff;fill-opacity:1"/><path d="m 3164.5464,2660.0606 -19.079,-1.004 -5.021,-3.013 7.029,-9.037 4.017,-7.029 -6.025,-5.021 -5.021,10.041 -5.021,5.021 h -12.05 l 7.029,-8.033 -0.736,-6.625 c -47.318,17.505 -83.588,57.792 -95.491,107.547 l 2.354,4.707 c 0,0 4,2 3,7 -1,5 -5,8 -5,8 l -4.317,7.771 c -0.143,2.703 -0.221,5.423 -0.221,8.162 0,26.673 6.849,51.743 18.874,73.56 4.35,6.193 22.295,25.848 22.295,25.848 l 6.025,-4.017 -11.045,-22.09 c 0,0 15.062,-26.107 17.07,-27.111 2.008,-1.005 7.029,-1.005 7.029,-1.005 0,0 3.012,1.005 5.021,0 2.008,-1.004 9.037,-23.095 9.037,-23.095 0,0 8.033,-3.012 9.037,-4.017 1.004,-1.004 3.012,-6.024 -2.008,-10.041 -5.021,-4.016 -16.066,-11.045 -16.066,-11.045 0,0 -1.004,-4.017 -1.004,-6.024 0,-2.008 -44.181,-19.079 -44.181,-19.079 l -3.013,-4.017 c 0,0 2.008,-5.021 3.013,-6.024 1.004,-1.004 -1.004,-7.029 -1.004,-7.029 0,0 1.004,-16.066 6.025,-18.074 5.021,-2.008 9.037,-1.004 7.029,2.008 -2.008,3.013 -5.021,5.021 -5.021,5.021 l -4.017,2.008 4.017,6.024 7.029,1.004 2.008,-3.013 -5.021,-5.021 5.021,-2.008 12.049,-21.086 c 0,0 26.107,-11.045 30.124,-13.054 4.016,-2.008 7.029,-5.021 8.033,-5.021 1.004,0 5.021,-1.004 7.029,-1.004 2.008,0 4.017,-1.004 4.017,-2.008 0,-1.004 1.004,-5.021 2.008,-6.025 0.786,-0.786 2.796,-2.183 3.636,-2.754 -0.807,0.657 -2.186,2.579 3.393,5.767 7.029,4.017 8.033,0 8.033,0 l -1.004,-4.017 7.029,1.004 17.07,-2.008 3.013,-7.029 -6.027,-4.015 z" id="path281-2-6" style="fill:#ffffff;fill-opacity:1"/><path d="m 3182.6121,2625.7474 c -84.3172,0 -152.7483,68.4617 -152.7483,152.7788 0,84.3171 68.4311,152.7484 152.7483,152.7484 84.3172,0 152.7789,-68.4313 152.7789,-152.7484 0,-84.3171 -68.4617,-152.7788 -152.7789,-152.7788 z m 0,8.0185 c 79.9936,0 144.7603,64.7666 144.7603,144.7603 0,79.9937 -64.7667,144.7298 -144.7603,144.7298 -79.9936,0 -144.7299,-64.7361 -144.7299,-144.7298 0,-79.9937 64.7363,-144.7603 144.7299,-144.7603 z" id="path4615" style="font-size:medium;font-style:normal;font-variant:normal;font-weight:normal;font-stretch:normal;text-indent:0;text-align:start;text-decoration:none;line-height:normal;letter-spacing:normal;word-spacing:normal;text-transform:none;direction:ltr;block-progression:tb;writing-mode:lr-tb;text-anchor:start;baseline-shift:baseline;color:#000000;fill:#ffffff;fill-opacity:1;stroke:none;stroke-width:8.19975948;marker:none;visibility:visible;display:inline;overflow:visible;enable-background:accumulate;font-family:Sans;-inkscape-font-specification:Sans"/></g></g></svg>