<?xml version="1.0" encoding="UTF-8" standalone="no"?>
<!-- Created with Inkscape (http://www.inkscape.org/) -->

<svg
   xmlns:dc="http://purl.org/dc/elements/1.1/"
   xmlns:cc="http://creativecommons.org/ns#"
   xmlns:rdf="http://www.w3.org/1999/02/22-rdf-syntax-ns#"
   xmlns:svg="http://www.w3.org/2000/svg"
   xmlns="http://www.w3.org/2000/svg"
   xmlns:xlink="http://www.w3.org/1999/xlink"
   xmlns:sodipodi="http://sodipodi.sourceforge.net/DTD/sodipodi-0.dtd"
   xmlns:inkscape="http://www.inkscape.org/namespaces/inkscape"
   width="48"
   height="48"
   id="svg2469"
   sodipodi:version="0.32"
   inkscape:version="0.48.5 r10040"
   version="1.0"
   sodipodi:docname="monodevelop.svg"
   inkscape:output_extension="org.inkscape.output.svg.inkscape">
  <defs
     id="defs2471">
    <filter
       inkscape:collect="always"
       id="filter7743">
      <feGaussianBlur
         inkscape:collect="always"
         stdDeviation="0.29512732"
         id="feGaussianBlur7745" />
    </filter>
    <filter
       inkscape:collect="always"
       id="filter7817">
      <feGaussianBlur
         inkscape:collect="always"
         stdDeviation="0.73794995"
         id="feGaussianBlur7819" />
    </filter>
    <linearGradient
       id="linearGradient7985">
      <stop
         id="stop7987"
         style="stop-color:#80a6d8;stop-opacity:1;"
         offset="0" />
      <stop
         offset="0.29166666"
         style="stop-color:#42699a;stop-opacity:1;"
         id="stop7991" />
      <stop
         id="stop7989"
         style="stop-color:#99b8e1;stop-opacity:1;"
         offset="1" />
    </linearGradient>
    <filter
       inkscape:collect="always"
       x="-0.12498815"
       width="1.2499763"
       y="-0.56774276"
       height="2.1354856"
       id="filter7917">
      <feGaussianBlur
         inkscape:collect="always"
         stdDeviation="1.7446263"
         id="feGaussianBlur7919" />
    </filter>
    <filter
       inkscape:collect="always"
       x="-0.087153517"
       width="1.174307"
       y="-0.39588377"
       height="1.7917676"
       id="filter7651">
      <feGaussianBlur
         inkscape:collect="always"
         stdDeviation="1.2165179"
         id="feGaussianBlur7653" />
    </filter>
  </defs>
  <sodipodi:namedview
     id="base"
     pagecolor="#ffffff"
     bordercolor="#666666"
     borderopacity="1.0"
     gridtolerance="10000"
     guidetolerance="10"
     objecttolerance="10"
     inkscape:pageopacity="0.0"
     inkscape:pageshadow="2"
     inkscape:zoom="2.8"
     inkscape:cx="64.565643"
     inkscape:cy="34.034515"
     inkscape:document-units="px"
     inkscape:current-layer="layer1"
     width="48px"
     height="48px"
     inkscape:window-width="872"
     inkscape:window-height="633"
     inkscape:window-x="4"
     inkscape:window-y="49"
     showgrid="false"
     inkscape:window-maximized="0" />
  <metadata
     id="metadata2474">
    <rdf:RDF>
      <cc:Work
         rdf:about="">
        <dc:format>image/svg+xml</dc:format>
        <dc:type
           rdf:resource="http://purl.org/dc/dcmitype/StillImage" />
      </cc:Work>
    </rdf:RDF>
  </metadata>
  <g
     inkscape:label="Layer 1"
     inkscape:groupmode="layer"
     id="layer1">
    <g
       style="display:inline;enable-background:new"
       transform="translate(-212.47336,-436.70578)"
       id="g3589"
       inkscape:export-filename="/home/aaron/Desktop/mono-develop-app-icon/Mac/mono-develop-64.png"
       inkscape:export-xdpi="90"
       inkscape:export-ydpi="90">
      <g
         id="g3591"
         transform="translate(-257.81235,-8.7992622)">
        <g
           transform="translate(1362.1847,634.98951)"
           id="g3601">
          <path
             style="fill:#000000;fill-opacity:1;fill-rule:evenodd;stroke:#cccccc;stroke-width:1.20000005;stroke-linecap:butt;stroke-linejoin:miter;stroke-miterlimit:4;stroke-opacity:1;stroke-dasharray:none"
             d="m -853.11996,-186.35737 c -2.80368,1.15129 -11.7943,4.90029 -12.01846,4.99385 -2.51535,-2.05419 -5.78691,-3.65023 -9.17539,-3.83077 -8.21946,-0.51689 -15.77953,6.78247 -15.80308,14.88 -0.36084,7.29019 2.96645,14.03269 5.97231,20.47384 2.51471,-1.04915 11.65868,-4.86045 11.88923,-4.95692 2.46871,2.06304 5.63043,3.58328 8.92616,3.82154 8.0878,0.67864 15.6045,-6.30832 16.01538,-14.21538 0.58707,-7.39645 -2.82264,-14.23867 -5.68615,-20.85231 -0.0417,-0.10318 -0.0784,-0.21066 -0.12,-0.31385 z"
             id="path3603"
             sodipodi:nodetypes="cccccccccc"
             inkscape:connector-curvature="0" />
          <path
             transform="translate(0,1)"
             d="M -875.375,-181.59375 C -880.28683,-181.59319 -886.49153,-176.90112 -886.4375,-169.65625 C -886.38523,-162.64396 -884.05497,-158.85618 -882.28125,-154.5625 L -877.03125,-156.75 C -878.23675,-159.21943 -879.78646,-161.68394 -880.34375,-162.90625 C -881.90393,-166.32873 -882.474,-167.86017 -882.34375,-170.46875 C -882.2178,-172.99075 -881.37713,-174.54443 -879.84375,-176.03125 C -878.31034,-177.51793 -876.18923,-178.2568 -873.65625,-177.90625 C -868.29177,-177.16305 -866.56552,-173.10293 -866.4375,-171.125 C -866.33213,-169.49819 -867.50361,-165.49174 -871.625,-165.6875 C -874.48212,-165.82345 -876.0881,-167.40721 -876.28125,-170.09375 C -876.42354,-172.07375 -874.50765,-174.07232 -871.40625,-173.0625 C -870.90705,-172.90006 -870.8733,-173.79529 -871.4375,-174.25 C -872.89006,-175.42058 -878.64445,-174.97309 -878.625,-170.375 C -878.60697,-166.11394 -875.1985,-163.2691 -871.90625,-163.25 C -865.01125,-163.20942 -863.65725,-168.65233 -863.90625,-172.40625 C -864.18214,-176.56594 -869.42819,-181.59444 -875.375,-181.59375 z "
             inkscape:href="#path3497"
             id="path3605"
             style="opacity:0.26785715;fill:#000000;fill-opacity:1;fill-rule:evenodd;stroke:none;stroke-width:0.85000002;stroke-linecap:butt;stroke-linejoin:miter;stroke-miterlimit:4;stroke-dasharray:none;stroke-opacity:1;filter:url(#filter7817)"
             xlink:href="#path3497"
             inkscape:original="M -875.375 -181.59375 C -880.28683 -181.59319 -886.49153 -176.90112 -886.4375 -169.65625 C -886.38523 -162.64396 -884.05497 -158.85618 -882.28125 -154.5625 L -877.03125 -156.75 C -878.23675 -159.21943 -879.78646 -161.68394 -880.34375 -162.90625 C -881.90393 -166.32873 -882.474 -167.86017 -882.34375 -170.46875 C -882.2178 -172.99075 -881.37713 -174.54443 -879.84375 -176.03125 C -878.31034 -177.51793 -876.18923 -178.2568 -873.65625 -177.90625 C -868.29177 -177.16305 -866.56552 -173.10293 -866.4375 -171.125 C -866.33213 -169.49819 -867.50361 -165.49174 -871.625 -165.6875 C -874.48212 -165.82345 -876.0881 -167.40721 -876.28125 -170.09375 C -876.42354 -172.07375 -874.50765 -174.07232 -871.40625 -173.0625 C -870.90705 -172.90006 -870.8733 -173.79529 -871.4375 -174.25 C -872.89006 -175.42058 -878.64445 -174.97309 -878.625 -170.375 C -878.60697 -166.11394 -875.1985 -163.2691 -871.90625 -163.25 C -865.01125 -163.20942 -863.65725 -168.65233 -863.90625 -172.40625 C -864.18214 -176.56594 -869.42819 -181.59444 -875.375 -181.59375 z "
             inkscape:radius="0"
             sodipodi:type="inkscape:offset" />
          <path
             style="fill:#ffffff;fill-opacity:1;fill-rule:evenodd;stroke:none"
             id="path3607"
             sodipodi:nodetypes="cssscsssssssssscc"
             inkscape:export-xdpi="16.219999"
             d="m -882.26964,-154.56487 c -1.77373,-4.29368 -4.12525,-8.07759 -4.17752,-15.08988 -0.054,-7.24487 6.16073,-11.9354 11.07256,-11.93596 5.94684,-6.9e-4 11.1791,5.02127 11.45499,9.18096 0.24899,3.75393 -1.08684,9.21345 -7.98184,9.17287 -3.29223,-0.0191 -6.71314,-2.88314 -6.73117,-7.1442 -0.0195,-4.59808 5.74064,-5.04665 7.1932,-3.87607 0.56423,0.4547 0.54698,1.35449 0.0478,1.19205 -3.10142,-1.00981 -5.01744,0.98038 -4.87515,2.96038 0.19316,2.68654 1.78703,4.28491 4.64415,4.42086 4.12141,0.19577 5.27521,-3.81249 5.16984,-5.4393 -0.12804,-1.97792 -1.85258,-6.046 -7.21706,-6.7892 -2.53298,-0.35054 -4.63224,0.40814 -6.16565,1.89482 -1.53338,1.48681 -2.39546,3.02425 -2.52141,5.54625 -0.13026,2.60859 0.43926,4.13919 1.99944,7.56167 0.55729,1.22231 2.11394,3.68839 3.31944,6.15782 l -5.2316,2.18693 z"
             inkscape:export-filename="/home/lluis/MonoDevelopWork/mono-logo.png"
             inkscape:export-ydpi="16.219999"
             inkscape:connector-curvature="0" />
          <path
             inkscape:export-ydpi="16.219999"
             inkscape:export-filename="/home/lluis/MonoDevelopWork/mono-logo.png"
             d="m -854.9661,-180.31037 c 1.77375,4.29397 4.12525,8.07773 4.17753,15.09017 0.054,7.24487 -6.16075,11.9354 -11.07256,11.93567 -5.94685,0.001 -11.17911,-5.02113 -11.45499,-9.1804 -0.24898,-3.75434 1.08683,-9.214 7.98185,-9.17315 3.29223,0.0191 6.71314,2.88315 6.73117,7.14407 0.0195,4.59794 -5.74065,5.04678 -7.19321,3.87607 -0.56422,-0.4547 -0.547,-1.35435 -0.0478,-1.19205 3.10141,1.00994 5.01741,-0.98052 4.87512,-2.96039 -0.19315,-2.68653 -1.78701,-4.28462 -4.64413,-4.42057 -4.1214,-0.19577 -5.27521,3.81263 -5.16985,5.43916 0.12804,1.97791 1.85257,6.04627 7.21708,6.78891 2.53297,0.35069 4.63223,-0.40799 6.16562,-1.89467 1.53341,-1.48695 2.3955,-3.02439 2.52144,-5.54597 0.13026,-2.60873 -0.43928,-4.13919 -1.99946,-7.56168 -0.55728,-1.22272 -2.11395,-3.68825 -3.31942,-6.15796 l 5.23158,-2.18721 z"
             inkscape:export-xdpi="16.219999"
             sodipodi:nodetypes="cssscsssssssssscc"
             id="path3609"
             style="opacity:0.77380952;fill:#000000;fill-opacity:1;fill-rule:evenodd;stroke:none;filter:url(#filter7743)"
             inkscape:connector-curvature="0" />
          <path
             style="fill:#cccccc;fill-opacity:1;fill-rule:evenodd;stroke:none"
             id="path3611"
             sodipodi:nodetypes="cssscsssssssssscc"
             inkscape:export-xdpi="16.219999"
             d="m -855.12143,-181.59071 c 1.77375,4.29397 4.12525,8.07773 4.17753,15.09017 0.054,7.24487 -6.16075,11.9354 -11.07256,11.93567 -5.94685,0.001 -11.17911,-5.02113 -11.45499,-9.1804 -0.24898,-3.75434 1.08683,-9.214 7.98185,-9.17315 3.29223,0.0191 6.71314,2.88315 6.73117,7.14407 0.0195,4.59794 -5.74065,5.04678 -7.19321,3.87607 -0.56422,-0.4547 -0.547,-1.35435 -0.0478,-1.19205 3.10141,1.00994 5.01741,-0.98052 4.87512,-2.96039 -0.19315,-2.68653 -1.78701,-4.28462 -4.64413,-4.42057 -4.1214,-0.19577 -5.27521,3.81263 -5.16985,5.43916 0.12804,1.97791 1.85257,6.04627 7.21708,6.78891 2.53297,0.35069 4.63223,-0.40799 6.16562,-1.89467 1.53341,-1.48695 2.3955,-3.02439 2.52144,-5.54597 0.13026,-2.60873 -0.43928,-4.13919 -1.99946,-7.56168 -0.55728,-1.22272 -2.11395,-3.68825 -3.31942,-6.15796 l 5.23158,-2.18721 z"
             inkscape:export-filename="/home/lluis/MonoDevelopWork/mono-logo.png"
             inkscape:export-ydpi="16.219999"
             inkscape:connector-curvature="0" />
          <path
             style="fill:#ffffff;fill-opacity:1;fill-rule:evenodd;stroke:none"
             d="m -875.38304,-181.606 c -4.91183,5.6e-4 -11.11651,4.69263 -11.0625,11.9375 0.0523,7.01229 2.41377,10.80007 4.1875,15.09375 l 5.21875,-2.1875 c -0.46597,-0.95453 -0.97584,-1.86811 -1.46875,-2.75 l -1.15625,0 0,-2.09375 c -0.28405,-0.51168 -0.53107,-0.96939 -0.6875,-1.3125 -1.56018,-3.42248 -2.13026,-4.95391 -2,-7.5625 0.12595,-2.522 0.99787,-4.04444 2.53125,-5.53125 1.53341,-1.48668 3.62327,-2.25679 6.15625,-1.90625 2.53685,0.35146 4.25006,1.45286 5.375,2.71875 l 1.0625,0 0,1.5625 c 0.48367,0.93376 0.73811,1.83365 0.78125,2.5 0.0468,0.72276 -0.18116,1.91463 -0.78125,3 l 0,3.71875 c 2.85022,-1.80436 3.48945,-5.33225 3.3125,-8 -0.27589,-4.15969 -5.52191,-9.18819 -11.46875,-9.1875 z"
             id="path3613"
             inkscape:connector-curvature="0" />
          <path
             d="m -853.84375,-184.625 c -3.50913,1.44754 -10.63821,4.40905 -10.78125,4.46875 a 1.3300854,1.3300854 0 0 1 -1.34375,-0.1875 c -2.33454,-1.90653 -5.38328,-3.37018 -8.40625,-3.53125 a 1.3300854,1.3300854 0 0 1 -0.0312,0 c -7.38625,-0.46449 -14.35385,6.29145 -14.375,13.5625 a 1.3300854,1.3300854 0 0 1 0,0.0625 c -0.31885,6.4417 2.5025,12.60126 5.34375,18.6875 3.33516,-1.39164 10.50797,-4.39363 10.6875,-4.46875 a 1.3300854,1.3300854 0 0 1 1.34375,0.1875 c 2.29299,1.91617 5.21162,3.34962 8.15625,3.5625 a 1.3300854,1.3300854 0 0 1 0.0312,0 c 7.2609,0.60926 14.19323,-5.86236 14.5625,-12.96875 a 1.3300854,1.3300854 0 0 1 0.0312,-0.0312 c 0.52554,-6.62157 -2.43912,-12.97948 -5.21875,-19.34375 z"
             inkscape:href="#path3493"
             id="path3615"
             style="opacity:0.4107143;fill:none;stroke:#000000;stroke-width:1.20000005;stroke-linecap:butt;stroke-linejoin:miter;stroke-miterlimit:4;stroke-opacity:1;stroke-dasharray:none"
             xlink:href="#path3493"
             inkscape:original="M -853.125 -186.34375 C -855.92871 -185.19245 -864.90084 -181.46856 -865.125 -181.375 C -867.64034 -183.42918 -870.92402 -185.00696 -874.3125 -185.1875 C -882.53199 -185.70439 -890.10145 -178.41003 -890.125 -170.3125 C -890.48585 -163.02231 -887.16211 -156.2849 -884.15625 -149.84375 C -881.64153 -150.8929 -872.48055 -154.71603 -872.25 -154.8125 C -869.78127 -152.74947 -866.63948 -151.20701 -863.34375 -150.96875 C -855.25598 -150.29011 -847.72338 -157.28044 -847.3125 -165.1875 C -846.72546 -172.58395 -850.13649 -179.41761 -853 -186.03125 C -853.0417 -186.13443 -853.08336 -186.24056 -853.125 -186.34375 z "
             inkscape:radius="-1.3299524"
             sodipodi:type="inkscape:offset" />
        </g>
      </g>
      <rect
         style="opacity:0.2;fill:none;fill-opacity:1;stroke:none;stroke-width:2.17700005;stroke-miterlimit:4;stroke-dasharray:none;stroke-opacity:1"
         id="rect3617"
         width="48"
         height="48"
         x="212.47336"
         y="436.70578" />
    </g>
  </g>
</svg>
