<?xml version="1.0" encoding="UTF-8" standalone="no"?>
<svg
   xmlns:dc="http://purl.org/dc/elements/1.1/"
   xmlns:cc="http://creativecommons.org/ns#"
   xmlns:rdf="http://www.w3.org/1999/02/22-rdf-syntax-ns#"
   xmlns:svg="http://www.w3.org/2000/svg"
   xmlns="http://www.w3.org/2000/svg"
   xmlns:sodipodi="http://sodipodi.sourceforge.net/DTD/sodipodi-0.dtd"
   xmlns:inkscape="http://www.inkscape.org/namespaces/inkscape"
   width="248"
   height="248"
   viewbox="0 0 248 248"
   id="svg2"
   version="1.1"
   inkscape:version="0.48.5 r10040"
   sodipodi:docname="mono.svg">
  <metadata
     id="metadata9">
    <rdf:RDF>
      <cc:Work
         rdf:about="">
        <dc:format>image/svg+xml</dc:format>
        <dc:type
           rdf:resource="http://purl.org/dc/dcmitype/StillImage" />
      </cc:Work>
    </rdf:RDF>
  </metadata>
  <defs
     id="defs7" />
  <sodipodi:namedview
     pagecolor="#ffffff"
     bordercolor="#666666"
     borderopacity="1"
     objecttolerance="10"
     gridtolerance="10"
     guidetolerance="10"
     inkscape:pageopacity="0"
     inkscape:pageshadow="2"
     inkscape:window-width="640"
     inkscape:window-height="480"
     id="namedview5"
     showgrid="false"
     inkscape:zoom="0.9516129"
     inkscape:cx="124"
     inkscape:cy="124"
     inkscape:window-x="0"
     inkscape:window-y="0"
     inkscape:window-maximized="0"
     inkscape:current-layer="svg2" />
  <path
     d="m 21,247.10892 c 0,-1.54702 51.746597,-63.73201 52.837601,-63.49601 0.623199,0.135 23.735199,9.954 51.360399,21.82 47.179,20.266 50.309,21.464 51.585,19.755 1.92901,-2.586 8.57399,-16.48599 12.08899,-25.28799 l 2.98201,-7.46901 -5.024,-2.74699 c -7.119,-3.89301 -17.56199,-12.564 -24.1,-20.01201 -5.967,-6.79599 -16.73,-23.195 -16.73,-25.491 0,-0.759 3.42,2.69501 7.60001,7.677 11.73999,13.993 38.79499,35.88901 40.49398,32.773 2.017,-3.69699 3.32001,-14.614 3.25501,-27.263 -0.079,-15.44199 -2.103,-27.46399 -7.418,-44.05799 l -2.979,-9.298 -14.726,-4.628999 c -8.099,-2.545799 -16.219,-5.098198 -18.043,-5.6717 -6.362,-2 -2.38201,-1.892403 6.933,0.187599 11.13701,2.4869 22.449,4.587402 29.45401,5.469101 6.168,0.775999 7.52499,-0.433998 8.185,-7.297897 C 199.59599,83.318323 193.948,59.148622 188.25,47.11482 c -2.274,-4.802898 -3.3,-5.838497 -7.853,-7.922897 -15.156,-6.9384 -62.594,-13.436901 -82.738499,-11.334301 -8.708099,0.909 -17.653198,3.025101 -20.441101,4.835598 -0.785797,0.510303 4.830704,1.957203 14.5,3.735302 8.6806,1.596298 15.0056,3.0541 14.0566,3.239498 C 104.825,39.853422 91.185203,38.354421 75.462997,36.337023 47.8614,32.795321 46.808601,32.73102 44.8861,34.470923 c -4.008301,3.627399 -9.775299,13.542801 -10.962601,18.848198 -1.149502,5.136501 -1.0686,5.731701 1.4888,10.959003 4.3591,8.909798 12.464901,15.392799 30.909897,24.721901 8.722,4.4114 15.646606,8.2323 15.3881,8.490799 C 81.451797,97.749323 74.008598,94.970225 65.1697,91.315119 L 49.099098,84.66942 25.5172,91.268625 c -12.9701,3.629593 -24.01738,6.599197 -24.549571,6.599197 -0.60822,0 -0.96763,-15.6689 -0.96763,-42.184299 0,-40.622202 0.07668,-42.342602 2.07095,-46.462301 1.21568,-2.5112 3.59035,-5.22276 5.75,-6.56567 L 11.499999,0.367842 119.5,0.067292 c 59.39999,-0.1653 110.403,-0.01541 113.339,0.33309 6.61699,0.78534 12.58899,5.63064 14.16899,11.49574 0.68001,2.528399 0.93601,40.981501 0.75901,114.142798 l -0.267,110.32899 -2.28799,3.679 c -1.34301,2.16 -4.05401,4.53401 -6.56501,5.75 -4.24501,2.055 -5.104,2.071 -110.96299,2.071 -58.676112,0 -106.684009,-0.342 -106.684009,-0.75899 z"
     id="path2228"
     inkscape:connector-curvature="0"
     style="fill:#000000" />
</svg>
