<?xml version="1.0" encoding="UTF-8" standalone="no"?>
<svg
   xmlns:dc="http://purl.org/dc/elements/1.1/"
   xmlns:cc="http://creativecommons.org/ns#"
   xmlns:rdf="http://www.w3.org/1999/02/22-rdf-syntax-ns#"
   xmlns:svg="http://www.w3.org/2000/svg"
   xmlns="http://www.w3.org/2000/svg"
   xmlns:sodipodi="http://sodipodi.sourceforge.net/DTD/sodipodi-0.dtd"
   xmlns:inkscape="http://www.inkscape.org/namespaces/inkscape"
   enable-background="new 0 0 48 48"
   height="48px"
   version="1.1"
   viewBox="0 0 48 48"
   width="48px"
   xml:space="preserve"
   id="svg2"
   inkscape:version="0.48.5 r10040"
   sodipodi:docname="book.svg"><metadata
     id="metadata23"><rdf:RDF><cc:Work
         rdf:about=""><dc:format>image/svg+xml</dc:format><dc:type
           rdf:resource="http://purl.org/dc/dcmitype/StillImage" /><dc:title></dc:title></cc:Work></rdf:RDF></metadata><defs
     id="defs21" /><sodipodi:namedview
     pagecolor="#ffffff"
     bordercolor="#666666"
     borderopacity="1"
     objecttolerance="10"
     gridtolerance="10"
     guidetolerance="10"
     inkscape:pageopacity="0"
     inkscape:pageshadow="2"
     inkscape:window-width="1366"
     inkscape:window-height="706"
     id="namedview19"
     showgrid="false"
     inkscape:zoom="4.9166667"
     inkscape:cx="32.135593"
     inkscape:cy="40.271186"
     inkscape:window-x="-9"
     inkscape:window-y="-5"
     inkscape:window-maximized="1"
     inkscape:current-layer="svg2" /><g
     id="Expanded"><g
       id="g5"><g
         id="g7"><path
           d="M23,48.049c-0.147,0-0.294-0.032-0.43-0.097l-21-10C1.222,37.786,1,37.435,1,37.049v-31c0-0.343,0.176-0.662,0.466-0.846     C1.755,5.02,2.12,4.999,2.43,5.146L23,14.941l20.57-9.796c0.31-0.146,0.673-0.126,0.963,0.058C44.824,5.387,45,5.706,45,6.049v31     c0,0.386-0.222,0.737-0.57,0.903l-21,10C23.294,48.017,23.147,48.049,23,48.049z M3,36.417l20,9.524l20-9.524V7.633l-19.57,9.319     c-0.271,0.129-0.588,0.129-0.859,0L3,7.633V36.417z"
           id="path9" /></g><g
         id="g11"><path
           d="M23,12.204L5.567,3.903C5.068,3.665,4.857,3.068,5.094,2.57c0.238-0.499,0.834-0.708,1.333-0.474L23,9.989l16.573-7.893     c0.5-0.234,1.095-0.025,1.333,0.474c0.237,0.498,0.026,1.095-0.473,1.333L23,12.204z"
           id="path13" /></g><g
         id="g15"><rect
           height="31"
           width="2"
           x="22"
           y="16.049"
           id="rect17" /></g></g></g><path
     inkscape:connector-curvature="0"
     d="m 41.122338,26.078782 c -0.188438,-1.13322 -1.062106,-2.214931 -2.475394,-3.008184 -1.464679,-0.819011 -3.366192,-1.272297 -5.37049,-1.272297 -3.554631,0 -6.621035,1.411373 -7.580358,3.45117 -0.599575,-0.36057 -1.584594,-0.602667 -2.509655,-0.602667 -0.92506,0 -1.910075,0.242097 -2.509656,0.602667 -0.959319,-2.039797 -4.025723,-3.45117 -7.580356,-3.45117 -1.995732,0 -3.9058116,0.448137 -5.3704906,1.267147 -1.413285,0.798403 -2.286953,1.880114 -2.475393,3.013334 H 4.0000017 v 0.927179 h 1.2505437 c 0.18844,1.13322 1.062108,2.21493 2.475393,3.008184 1.464679,0.819009 3.3661946,1.272297 5.3704906,1.272297 4.351212,0 7.888712,-2.122212 7.888712,-4.73892 0,-0.0052 0,-0.0052 0,-0.0052 h 0 c 0,-0.509949 0.985017,-1.112616 2.2013,-1.112616 1.216284,0 2.201302,0.602667 2.201302,1.112616 h 0 c 0,0 0,0 0,0.0052 0,2.616708 3.537501,4.73892 7.888711,4.73892 1.995733,0 3.905811,-0.448137 5.37049,-1.272297 1.413288,-0.793254 2.286956,-1.880115 2.475394,-3.013334 h 1.250545 V 26.07363 h -1.250545 z m -7.845884,4.429859 c -3.640284,0 -6.595339,-1.782246 -6.595339,-3.966269 0,-2.189175 2.96362,-3.966269 6.595339,-3.966269 3.640285,0 6.59534,1.782243 6.59534,3.966269 0,2.189174 -2.955055,3.966269 -6.59534,3.966269 z m -20.180025,0 c -3.6402836,0 -6.5953356,-1.782246 -6.5953356,-3.966269 0,-2.189175 2.963621,-3.966269 6.5953356,-3.966269 3.640284,0 6.59534,1.782243 6.59534,3.966269 0,2.189174 -2.955056,3.966269 -6.59534,3.966269 z"
     id="path3" /></svg>