<?xml version="1.0" encoding="UTF-8" standalone="no"?>
<svg
   xmlns:dc="http://purl.org/dc/elements/1.1/"
   xmlns:cc="http://creativecommons.org/ns#"
   xmlns:rdf="http://www.w3.org/1999/02/22-rdf-syntax-ns#"
   xmlns:svg="http://www.w3.org/2000/svg"
   xmlns="http://www.w3.org/2000/svg"
   xmlns:xlink="http://www.w3.org/1999/xlink"
   xmlns:sodipodi="http://sodipodi.sourceforge.net/DTD/sodipodi-0.dtd"
   xmlns:inkscape="http://www.inkscape.org/namespaces/inkscape"
   viewBox="0 0 17 57"
   id="svg2"
   version="1.1"
   inkscape:version="0.48.4 r9939"
   width="100%"
   height="100%"
   sodipodi:docname="frame.svgz">
  <title
     id="title2995">Tilain</title>
  <metadata
     id="metadata34">
    <rdf:RDF>
      <cc:Work
         rdf:about="">
        <dc:format>image/svg+xml</dc:format>
        <dc:type
           rdf:resource="http://purl.org/dc/dcmitype/StillImage" />
        <dc:title>Tilain</dc:title>
        <cc:license
           rdf:resource="" />
      </cc:Work>
    </rdf:RDF>
  </metadata>
  <sodipodi:namedview
     pagecolor="#ffffff"
     bordercolor="#666666"
     borderopacity="1"
     objecttolerance="10"
     gridtolerance="10"
     guidetolerance="10"
     inkscape:pageopacity="0"
     inkscape:pageshadow="2"
     inkscape:window-width="1920"
     inkscape:window-height="1027"
     id="namedview32"
     showgrid="false"
     inkscape:zoom="5.2149128"
     inkscape:cx="-9.828101"
     inkscape:cy="53.99638"
     inkscape:window-x="0"
     inkscape:window-y="26"
     inkscape:window-maximized="1"
     inkscape:current-layer="svg2" />
  <defs
     id="defs4">
    <radialGradient
       inkscape:collect="always"
       xlink:href="#linearGradient8734"
       id="radialGradient4039"
       gradientUnits="userSpaceOnUse"
       gradientTransform="matrix(0.06792405,-1.5772391e-7,0,0.2845765,242.35364,65.72604)"
       cx="355.5"
       cy="231.10249"
       fx="355.5"
       fy="231.10249"
       r="70" />
    <linearGradient
       id="linearGradient8734"
       inkscape:collect="always">
      <stop
         id="stop8736"
         offset="0"
         style="stop-color:#ffffff;stop-opacity:1;" />
      <stop
         id="stop8738"
         offset="1"
         style="stop-color:#ffffff;stop-opacity:0;" />
    </linearGradient>
    <radialGradient
       inkscape:collect="always"
       xlink:href="#linearGradient8734"
       id="radialGradient4655"
       gradientUnits="userSpaceOnUse"
       gradientTransform="matrix(0.06792405,-1.5772391e-7,0,0.2845765,242.35364,65.72604)"
       cx="355.5"
       cy="231.10249"
       fx="355.5"
       fy="231.10249"
       r="70" />
  </defs>
  <g
     transform="translate(-257.99999,-100.99996)"
     id="plain-center">
    <path
       style="fill:#ffffff;fill-opacity:0.6;fill-rule:nonzero;stroke:none"
       d="m 264,112 0,5 5,0 0,-5 -5,0 z"
       id="path3979"
       inkscape:connector-curvature="0" />
  </g>
  <g
     transform="translate(-258.99999,-101.99996)"
     id="plain-topleft">
    <path
       style="fill:#ffffff;fill-opacity:0.6;fill-rule:nonzero;stroke:none"
       d="m 260,108 0,4 4,0 0,-4 z"
       id="path3983"
       sodipodi:nodetypes="ccccc"
       inkscape:connector-curvature="0" />
    <path
       style="fill:#b2b2b2;fill-opacity:1;fill-rule:nonzero;stroke:none"
       d="m 259,107 0,5 1,0 0,-4 4,0 0,-1 z"
       id="path3985"
       inkscape:connector-curvature="0"
       sodipodi:nodetypes="ccccccc" />
  </g>
  <g
     transform="translate(-258.99999,-100.99996)"
     id="plain-left">
    <path
       style="fill:#b2b2b2;fill-opacity:1;fill-rule:nonzero;stroke:none"
       d="m 259,112 0,5 1,0 0,-5 -1,0 z"
       id="path3989"
       inkscape:connector-curvature="0" />
    <path
       style="fill:#ffffff;fill-opacity:0.6;fill-rule:nonzero;stroke:none"
       d="m 260,112 0,5 4,0 0,-5 -4,0 z"
       id="path3991"
       inkscape:connector-curvature="0" />
  </g>
  <g
     transform="translate(-257.99999,-101.99996)"
     id="plain-top">
    <path
       style="fill:#ffffff;fill-opacity:0.6;fill-rule:nonzero;stroke:none"
       d="m 264,108 0,4 5,0 0,-4 -5,0 z"
       id="path3995"
       inkscape:connector-curvature="0" />
    <path
       style="fill:url(#radialGradient4039);fill-opacity:1;fill-rule:nonzero;stroke:none"
       d="m 264,107 0,1 5,0 0,-1 -5,0 z"
       id="path3997"
       inkscape:connector-curvature="0" />
    <path
       style="fill:#b2b2b2;fill-opacity:1;fill-rule:nonzero;stroke:none"
       d="m 264,107 0,1 5,0 0,-1 z"
       id="path3999"
       inkscape:connector-curvature="0"
       sodipodi:nodetypes="ccccc" />
  </g>
  <g
     transform="translate(-258.99999,-99.99996)"
     id="plain-bottomleft">
    <path
       style="fill:#b2b2b2;fill-opacity:1;fill-rule:nonzero;stroke:none"
       d="m 259,117 0,5 5,0 0,-1 -4,0 0,-4 z"
       id="path4003"
       inkscape:connector-curvature="0"
       sodipodi:nodetypes="ccccccc" />
    <path
       style="fill:#ffffff;fill-opacity:0.6;fill-rule:nonzero;stroke:none"
       d="m 260,117 0,4 4,0 0,-4 z"
       id="path4005"
       sodipodi:nodetypes="ccccc"
       inkscape:connector-curvature="0" />
  </g>
  <g
     transform="translate(-257.99999,-99.99996)"
     id="plain-bottom">
    <path
       style="fill:#b2b2b2;fill-opacity:1;fill-rule:nonzero;stroke:none"
       d="m 264,121 0,1 5,0 0,-1 -5,0 z"
       id="path4009"
       inkscape:connector-curvature="0" />
    <path
       style="fill:#ffffff;fill-opacity:0.6;fill-rule:nonzero;stroke:none"
       d="m 264,117 0,4 5,0 0,-4 -5,0 z"
       id="path4011"
       inkscape:connector-curvature="0" />
  </g>
  <g
     transform="translate(-256.99999,-101.99996)"
     id="plain-topright">
    <path
       style="fill:#ffffff;fill-opacity:0.6;fill-rule:nonzero;stroke:none"
       d="m 269,108 0,4 4,0 0,-4 z"
       id="path4015"
       sodipodi:nodetypes="ccccc"
       inkscape:connector-curvature="0" />
    <path
       style="fill:#b2b2b2;fill-opacity:1;fill-rule:nonzero;stroke:none"
       d="m 269,107 0,1 4,0 0,4 1,0 0,-5 z"
       id="path4017"
       inkscape:connector-curvature="0"
       sodipodi:nodetypes="ccccccc" />
  </g>
  <g
     transform="translate(-256.99999,-100.99996)"
     id="plain-right">
    <path
       style="fill:#b2b2b2;fill-opacity:1;fill-rule:nonzero;stroke:none"
       d="m 273,112 0,5 1,0 0,-5 -1,0 z"
       id="path4021"
       inkscape:connector-curvature="0" />
    <path
       style="fill:#ffffff;fill-opacity:0.6;fill-rule:nonzero;stroke:none"
       d="m 269,112 0,5 4,0 0,-5 -4,0 z"
       id="path4023"
       inkscape:connector-curvature="0" />
  </g>
  <g
     transform="translate(-256.99999,-99.99996)"
     id="plain-bottomright">
    <path
       style="fill:#b2b2b2;fill-opacity:1;fill-rule:nonzero;stroke:none"
       d="m 273,117 0,4 -4,0 0,1 5,0 0,-5 z"
       id="path4027"
       inkscape:connector-curvature="0"
       sodipodi:nodetypes="ccccccc" />
    <path
       style="fill:#ffffff;fill-opacity:0.6;fill-rule:nonzero;stroke:none"
       d="m 269,117 0,4 4,0 0,-4 z"
       id="path4029"
       sodipodi:nodetypes="ccccc"
       inkscape:connector-curvature="0" />
  </g>
  <g
     id="sunken-center"
     transform="translate(-257.99999,-120.99996)">
    <path
       inkscape:connector-curvature="0"
       id="rect8669"
       d="m 264,112 0,5 5,0 0,-5 -5,0 z"
       style="fill:#e5e5e5;fill-opacity:1;fill-rule:nonzero;stroke:none" />
  </g>
  <g
     id="sunken-topleft"
     transform="translate(-258.99999,-121.99996)">
    <path
       inkscape:connector-curvature="0"
       sodipodi:nodetypes="ccccc"
       id="path4447"
       d="m 260,108 0,4 4,0 0,-4 z"
       style="fill:#e5e5e5;fill-opacity:1;fill-rule:nonzero;stroke:none" />
    <path
       sodipodi:nodetypes="ccccccc"
       inkscape:connector-curvature="0"
       id="path4451"
       d="m 259,107 0,5 1,0 0,-4 4,0 0,-1 z"
       style="fill:#b2b2b2;fill-opacity:1;fill-rule:nonzero;stroke:none" />
  </g>
  <g
     id="sunken-left"
     transform="translate(-258.99999,-120.99996)">
    <path
       inkscape:connector-curvature="0"
       id="path4493"
       d="m 259,112 0,5 1,0 0,-5 -1,0 z"
       style="fill:#b2b2b2;fill-opacity:1;fill-rule:nonzero;stroke:none" />
    <path
       inkscape:connector-curvature="0"
       id="path4489"
       d="m 260,112 0,5 4,0 0,-5 -4,0 z"
       style="fill:#e5e5e5;fill-opacity:1;fill-rule:nonzero;stroke:none" />
  </g>
  <g
     id="sunken-top"
     transform="translate(-257.99999,-121.99996)">
    <path
       inkscape:connector-curvature="0"
       id="path4543"
       d="m 264,108 0,4 5,0 0,-4 -5,0 z"
       style="fill:#e5e5e5;fill-opacity:1;fill-rule:nonzero;stroke:none" />
    <path
       inkscape:connector-curvature="0"
       id="path4545"
       d="m 264,107 0,1 5,0 0,-1 -5,0 z"
       style="fill:url(#radialGradient4655);fill-opacity:1;fill-rule:nonzero;stroke:none" />
    <path
       sodipodi:nodetypes="ccccc"
       inkscape:connector-curvature="0"
       id="path4547"
       d="m 264,107 0,1 5,0 0,-1 z"
       style="fill:#b2b2b2;fill-opacity:1;fill-rule:nonzero;stroke:none" />
  </g>
  <g
     id="sunken-bottomleft"
     transform="translate(-258.99999,-119.99996)">
    <path
       sodipodi:nodetypes="ccccccc"
       inkscape:connector-curvature="0"
       id="path4470"
       d="m 259,117 0,5 5,0 0,-1 -4,0 0,-4 z"
       style="fill:#b2b2b2;fill-opacity:1;fill-rule:nonzero;stroke:none" />
    <path
       inkscape:connector-curvature="0"
       sodipodi:nodetypes="ccccc"
       id="path4468"
       d="m 260,117 0,4 4,0 0,-4 z"
       style="fill:#e5e5e5;fill-opacity:1;fill-rule:nonzero;stroke:none" />
  </g>
  <g
     id="sunken-bottom"
     transform="translate(-257.99999,-119.99996)">
    <path
       inkscape:connector-curvature="0"
       id="path4520"
       d="m 264,121 0,1 5,0 0,-1 -5,0 z"
       style="fill:#b2b2b2;fill-opacity:1;fill-rule:nonzero;stroke:none" />
    <path
       inkscape:connector-curvature="0"
       id="path4516"
       d="m 264,117 0,4 5,0 0,-4 -5,0 z"
       style="fill:#e5e5e5;fill-opacity:1;fill-rule:nonzero;stroke:none" />
  </g>
  <g
     id="sunken-topright"
     transform="translate(-256.99999,-121.99996)">
    <path
       inkscape:connector-curvature="0"
       sodipodi:nodetypes="ccccc"
       id="path4426"
       d="m 269,108 0,4 4,0 0,-4 z"
       style="fill:#e5e5e5;fill-opacity:1;fill-rule:nonzero;stroke:none" />
    <path
       sodipodi:nodetypes="ccccccc"
       inkscape:connector-curvature="0"
       id="path4430"
       d="m 269,107 0,1 4,0 0,4 1,0 0,-5 z"
       style="fill:#b2b2b2;fill-opacity:1;fill-rule:nonzero;stroke:none" />
  </g>
  <g
     id="sunken-right"
     transform="translate(-256.99999,-120.99996)">
    <path
       inkscape:connector-curvature="0"
       id="path4574"
       d="m 273,112 0,5 1,0 0,-5 -1,0 z"
       style="fill:#b2b2b2;fill-opacity:1;fill-rule:nonzero;stroke:none" />
    <path
       inkscape:connector-curvature="0"
       id="path4570"
       d="m 269,112 0,5 4,0 0,-5 -4,0 z"
       style="fill:#e5e5e5;fill-opacity:1;fill-rule:nonzero;stroke:none" />
  </g>
  <g
     id="sunken-bottomright"
     transform="translate(-256.99999,-119.99996)">
    <path
       sodipodi:nodetypes="ccccccc"
       inkscape:connector-curvature="0"
       id="path4404"
       d="m 273,117 0,4 -4,0 0,1 5,0 0,-5 z"
       style="fill:#b2b2b2;fill-opacity:1;fill-rule:nonzero;stroke:none" />
    <path
       inkscape:connector-curvature="0"
       sodipodi:nodetypes="ccccc"
       id="path4400"
       d="m 269,117 0,4 4,0 0,-4 z"
       style="fill:#e5e5e5;fill-opacity:1;fill-rule:nonzero;stroke:none" />
  </g>
  <rect
     y="-7.9999523"
     x="0"
     height="3"
     width="5"
     id="sunken-hint-left-margin"
     style="fill:#ff00a8;fill-opacity:1;fill-rule:nonzero;stroke:none" />
  <rect
     style="fill:#ff00a8;fill-opacity:1;fill-rule:nonzero;stroke:none"
     id="sunken-hint-top-margin"
     width="3"
     height="5"
     x="7"
     y="-14.999952" />
  <rect
     y="-2.9999523"
     x="7"
     height="5"
     width="3"
     id="sunken-hint-bottom-margin"
     style="fill:#ff00a8;fill-opacity:1;fill-rule:nonzero;stroke:none" />
  <rect
     style="fill:#ff00a8;fill-opacity:1;fill-rule:nonzero;stroke:none"
     id="sunken-hint-right-margin"
     width="5"
     height="3"
     x="12"
     y="-7.9999523" />
  <path
     style="fill:#f8f8f8;fill-opacity:1;fill-rule:nonzero;stroke:none"
     d="m 6.9995313,29.000007 0,20 19.9999997,0 0,-20 -19.9999997,0 z"
     id="raised-center"
     inkscape:connector-curvature="0" />
  <g
     id="raised-bottom"
     transform="matrix(0.15270715,0,0,1,-22.033759,-796.85718)">
    <g
       id="g4093">
      <path
         inkscape:connector-curvature="0"
         style="fill:#f8f8f8;fill-opacity:1;fill-rule:nonzero;stroke:none"
         d="m 190.12705,845.85714 0,4 130.96964,8e-5 0.0146,-4.00008 z"
         id="path4095"
         sodipodi:nodetypes="ccccc" />
      <path
         inkscape:connector-curvature="0"
         id="path4097"
         d="m 190.14285,849.85714 0,1 131,0 0,-1 -131,0 z"
         style="fill:#b2b2b2;fill-opacity:1;fill-rule:nonzero;stroke:none" />
    </g>
    <rect
       style="opacity:0.52100004;fill:#ffffff;fill-opacity:0;stroke:none"
       id="rect4101"
       width="1"
       height="2.000037"
       x="547"
       y="869"
       transform="translate(-342.85715,-17.142857)" />
  </g>
  <g
     id="raised-bottomleft"
     transform="translate(-183.14284,-796.85718)">
    <g
       id="g4105">
      <path
         id="path4107"
         d="m 185.14285,850.85722 0,-5.00006 1,0 0,4.00006 4,-6e-5 0,1 z"
         style="fill:#b2b2b2;fill-opacity:1;fill-rule:nonzero;stroke:none"
         inkscape:connector-curvature="0"
         sodipodi:nodetypes="ccccccc" />
      <path
         id="path4109"
         d="m 190.14285,849.8572 0,-4 -4,0 0,4.00002 z"
         style="fill:#f8f8f8;fill-opacity:1;fill-rule:nonzero;stroke:none"
         inkscape:connector-curvature="0"
         sodipodi:nodetypes="ccccc" />
    </g>
    <rect
       style="opacity:0.52100004;fill:#ffffff;fill-opacity:0;stroke:none"
       id="rect4113"
       width="2.0000029"
       height="2.0000634"
       x="183.14285"
       y="851.85712" />
  </g>
  <g
     id="raised-left"
     transform="matrix(1,0,0,1.2499984,-183.14284,-1008.3201)">
    <g
       id="g4117">
      <path
         id="path4119"
         d="m 186.14285,829.85712 0,16 4,0 0,-16 -4,0 z"
         style="fill:#f8f8f8;fill-opacity:1;fill-rule:nonzero;stroke:none"
         inkscape:connector-curvature="0" />
      <path
         style="fill:#b2b2b2;fill-opacity:1;fill-rule:nonzero;stroke:none"
         d="m 185.14285,829.85715 0,15.99999 1,0 0,-15.99999 -1,0 z"
         id="path4121"
         inkscape:connector-curvature="0" />
    </g>
    <rect
       style="opacity:0.52100004;fill:#ffffff;fill-opacity:0;stroke:none"
       id="rect4125"
       width="2.0000029"
       height="3"
       x="183.14285"
       y="834.85712" />
  </g>
  <g
     id="raised-topleft"
     transform="translate(-183.14284,-800.85715)">
    <g
       id="g4129">
      <path
         style="fill:#f8f8f8;fill-opacity:1;fill-rule:nonzero;stroke:none"
         d="m 186.14285,829.8571 4,0 0,-4 -4,9e-5 z"
         id="path4131"
         inkscape:connector-curvature="0"
         sodipodi:nodetypes="ccccc" />
      <path
         inkscape:connector-curvature="0"
         style="fill:#b2b2b2;fill-opacity:1;fill-rule:nonzero;stroke:none"
         d="m 185.14285,824.85719 5,-4e-5 0,1 -4,4e-5 0,3.99996 -1,0 z"
         id="path4133"
         sodipodi:nodetypes="ccccccc" />
    </g>
    <rect
       style="opacity:0.52100004;fill:#ffffff;fill-opacity:0;stroke:none"
       id="rect4137"
       width="2.0000029"
       height="1.9999441"
       x="183.14285"
       y="822.85718" />
  </g>
  <g
     id="raised-top"
     transform="matrix(0.15267174,0,0,1,-22.02944,-800.85714)">
    <g
       id="g4141">
      <path
         style="fill:#f8f8f8;fill-opacity:1;fill-rule:nonzero;stroke:none"
         d="m 190.14286,825.85714 0,4 131,0 0,-4 -131,0 z"
         id="path4143"
         inkscape:connector-curvature="0" />
      <path
         id="path4145"
         d="m 190.14285,824.85714 0,1 131,0 0,-1 -131,0 z"
         style="fill:#b2b2b2;fill-opacity:1;fill-rule:nonzero;stroke:none"
         inkscape:connector-curvature="0" />
    </g>
    <rect
       y="822.85718"
       x="200.14285"
       height="1.9999441"
       width="3"
       id="rect4149"
       style="opacity:0.52100004;fill:#ffffff;fill-opacity:0;stroke:none" />
  </g>
  <g
     id="raised-topright"
     transform="translate(-294.14284,-800.85714)">
    <g
       id="g4153">
      <path
         id="path4155"
         d="m 321.14285,825.85714 0,4 4,0 0,-3.99996 z"
         style="fill:#f8f8f8;fill-opacity:1;fill-rule:nonzero;stroke:none"
         inkscape:connector-curvature="0"
         sodipodi:nodetypes="ccccc" />
      <path
         id="path4157"
         d="m 326.14285,824.85718 0,4.99996 -1,0 0,-3.99996 -4,-4e-5 0,-1 z"
         style="fill:#b2b2b2;fill-opacity:1;fill-rule:nonzero;stroke:none"
         inkscape:connector-curvature="0"
         sodipodi:nodetypes="ccccccc" />
    </g>
    <rect
       style="opacity:0.52100004;fill:#ffffff;fill-opacity:0;stroke:none"
       id="rect4161"
       width="1.9999973"
       height="1.9999441"
       x="326.14285"
       y="822.85718" />
  </g>
  <g
     id="raised-right"
     transform="matrix(1,0,0,1.2500128,-294.14284,-1008.3321)">
    <g
       id="g4165">
      <path
         style="fill:#f8f8f8;fill-opacity:1;fill-rule:nonzero;stroke:none"
         d="m 325.14286,829.85712 0,16 -4,0 0,-16 4,0 z"
         id="path4167"
         inkscape:connector-curvature="0" />
      <path
         id="path4169"
         d="m 326.14286,829.85715 0,15.99999 -1,0 0,-15.99999 1,0 z"
         style="fill:#b2b2b2;fill-opacity:1;fill-rule:nonzero;stroke:none"
         inkscape:connector-curvature="0" />
    </g>
    <rect
       y="832.85712"
       x="326.14285"
       height="3"
       width="1.9999973"
       id="rect4173"
       style="opacity:0.52100004;fill:#ffffff;fill-opacity:0;stroke:none" />
  </g>
  <g
     id="raised-bottomright"
     transform="translate(-294.14284,-796.85718)">
    <g
       id="g4177">
      <g
         id="g4179">
        <path
           id="path4183"
           d="m 325.1429,845.85714 -4,0 0,4 3.99995,8e-5 z"
           style="fill:#f8f8f8;fill-opacity:1;fill-rule:nonzero;stroke:none"
           inkscape:connector-curvature="0"
           sodipodi:nodetypes="ccccc" />
        <path
           id="path4185"
           d="m 326.14285,850.85722 -4.99999,-8e-5 0,-1 3.99999,8e-5 10e-6,-4.00008 1,0 z"
           style="fill:#b2b2b2;fill-opacity:1;fill-rule:nonzero;stroke:none"
           inkscape:connector-curvature="0"
           sodipodi:nodetypes="ccccccc" />
      </g>
    </g>
    <rect
       style="opacity:0.52100004;fill:#ffffff;fill-opacity:0;stroke:none"
       id="rect4187"
       width="1.9999973"
       height="2.0000634"
       x="326.14285"
       y="851.85712" />
  </g>
  <rect
     y="5.0000477"
     x="7"
     height="2"
     width="3"
     id="plain-hint-top-margin"
     style="fill:#ff00a8;fill-opacity:1;fill-rule:nonzero;stroke:none" />
  <rect
     style="fill:#ff00a8;fill-opacity:1;fill-rule:nonzero;stroke:none"
     id="plain-hint-bottom-margin"
     width="3"
     height="2"
     x="7"
     y="20.000046" />
  <rect
     style="fill:#ff00a8;fill-opacity:1;fill-rule:nonzero;stroke:none"
     id="plain-hint-left-margin"
     width="2"
     height="2.9999981"
     x="0"
     y="12.000048" />
  <rect
     y="12.000048"
     x="15"
     height="3"
     width="2"
     id="plain-hint-right-margin"
     style="fill:#ff00a8;fill-opacity:1;fill-rule:nonzero;stroke:none" />
</svg>
